<?xml version="1.0" encoding="utf-8"?>
<!-- Generator: Adobe Illustrator 24.2.3, SVG Export Plug-In . SVG Version: 6.00 Build 0)  -->
<svg version="1.1" id="Layer_1" xmlns="http://www.w3.org/2000/svg" xmlns:xlink="http://www.w3.org/1999/xlink" x="0px" y="0px"
	 viewBox="0 0 4500 1451.9" style="enable-background:new 0 0 4500 1451.9;" xml:space="preserve">
<style type="text/css">
	.st0{fill:#4D4D4D;}
	.st1{fill:#ED1C24;}
</style>
<g>
	<g>
		<path class="st0" d="M1192.8,288.7c-0.3,4.3-0.4,8.6-1,12.8c-3,19.6-6.3,39.1-9.3,58.7c-11,72.9,19.4,126.8,77.5,167.8
			c40.5,28.5,86.7,44,134.3,55c86.8,20.1,174.7,30.1,263.9,30.9c32.4,0.3,64.7,3.6,97.1,4.8c22.2,0.8,25.8-1.8,32.2-22.5
			c24.9-81,49.4-162.1,74.3-243.1c4.8-15.5,9.8-31,16.5-45.7c8.6-18.9,24.9-29,45.3-29.2c86.1-0.5,172.2-0.3,258.4-0.1
			c5.3,0,10.7,1.4,15.9,2.8c17.6,4.8,24.3,14.7,19.6,32.2c-7.8,29.6-16.7,59-25.6,88.3c-19.7,65.1-39.8,130.2-59.6,195.3
			c-5.2,16.9-1.8,22,15.4,22c60.4,0.2,120.8,0.7,181.3-0.2c48-0.7,94.9-9.7,140.5-24.9c31.9-10.7,58.2-47.7,57.4-81
			c-0.5-20.5-10-36.3-26.8-47.5c-21.9-14.6-46.4-22.4-72.4-23.9c-33.7-2-67.5-2.1-101.3-3.1c-26.6-0.8-53.1-1.6-79.7-2.6
			c-13.2-0.5-16.9-5-13.2-18.5c7.3-26.5,15.5-52.8,23.4-79.1c4.3-14.2,9.2-28.3,13.1-42.7c3.8-14.3,12-20.5,27.3-20.3
			c50,0.7,100.2-1.4,150.1,0.9c94.6,4.3,189,11,279.2,43.9c35.3,12.9,68.8,27.9,98,52.9c52.3,44.8,69,100.2,55.6,166.2
			c-11.7,57.4-44.2,100.5-91.1,134.3c-56.2,40.5-120.5,60.2-187.3,73.5c-12.8,2.5-25.7,5-38.4,8c-20.5,4.8-22.3,10.1-9.3,27.2
			c18.2,24.1,36.8,47.9,55.2,71.8c42.5,55.4,85.3,110.7,127.2,166.6c5.7,7.6,12.2,20.2,9.5,27.2c-4.8,12.9-19,18.4-33.4,18.5
			c-43.3,0.2-86.6-0.2-129.9,0.3c-45.5,0.4-91,1.5-136.5,2.4c-41,0.8-71-16.2-93-51.5c-46.2-74.2-94.2-147.4-141.2-221.1
			c-8.2-13-18.9-19.4-34.4-19.9c-44.1-1.3-88.2-3.4-132.3-5c-76.5-2.9-153-5.1-229.5-8.6c-56.2-2.6-112.3-6.3-168.4-10.6
			c-117.8-9-235-22.5-350.3-49.1c-13.2-3-26-7.4-39.1-10.8c-15.5-4.1-21.5-16.3-27-29.7c-8.5-20.8-16.2-42.1-26.9-61.9
			c-23.2-43.2-55.9-78.7-96.5-105.9c-18.8-12.6-22.1-27.8-19.1-48.6c8.7-60.1,37.4-108.4,83.1-147.3c5.3-4.5,11.4-8,17.1-12
			C1190.2,287.1,1191.5,287.9,1192.8,288.7z"/>
		<path class="st0" d="M2672.5,276.6c6.3-0.5,12.6-1.5,18.8-1.5c271-0.1,542,0,813,0c53.2,0,106.4-0.4,159.6,0.3
			c14.7,0.2,29.5,3.1,44,6.3c14.6,3.2,21.3,12.7,17.6,26.9c-8.7,33.1-17.3,66.4-29.2,98.4c-8.4,22.6-30.6,28-52.7,28.2
			c-55.9,0.5-111.8,0.2-167.7,0.2c-41.5,0-83-0.1-124.4,0c-22.6,0-28.9,4.2-35.4,25.4c-26.5,86.6-52.9,173.3-79.1,260
			c-30.2,99.7-59.9,199.4-90.3,299c-11.1,36.4-29.2,50.5-67.2,50.9c-74.8,0.7-149.7,0.3-224.5,0.1c-13.5,0-27-1.4-40.4-2.5
			c-18.8-1.5-27.6-9.5-24.3-27.8c4.5-25.6,11.9-50.8,19.4-75.8c43.2-142.8,86.7-285.5,130.1-428.3c8.3-27.2,16.9-54.2,24.9-81.5
			c4.9-16.6,1.2-20.5-16.1-18.2c-25.2,3.3-45.7-9.3-60.6-38.4c-12.7-24.9-30.3-45.8-55.1-57.6c-32-15.3-65.3-27.7-98.5-40.2
			c-17.2-6.5-35.4-10.4-53.1-15.7c-3.1-0.9-6-2.9-8.9-4.3C2672.2,279.2,2672.3,277.9,2672.5,276.6z"/>
		<path class="st0" d="M766.7,1064c-3.4,0.6-6.7,1.8-10.1,1.8c-28.8,0-57.9,1.9-86.5-0.7c-49.7-4.6-99.6-9.7-148.6-18.8
			c-59.9-11.2-118.7-28.3-170.9-61.3c-44.8-28.3-79.4-65.5-89.4-119.9c-5.4-29.4-0.4-58.1,8.4-86.5c24.5-78.7,48.5-157.7,72-236.7
			c25-83.9,77-146.4,152.6-188.2c34-18.8,70.7-34.1,107.9-45.7c89.4-27.8,181.4-43.5,275.3-43.6c67.9-0.1,135.8,1.9,203.8,3
			c2.7,0,5.4,0.5,8,1c17.7,2.9,20.8,7.4,15.8,24.5c-8.5,29-17.4,57.8-26.1,86.7c-5.6,18.6-10.9,37.2-16.8,55.6
			c-6.3,19.7-11.7,22.5-32.1,18c-24.6-5.5-48.9-13.5-73.8-16c-96.6-9.6-183.4,13-254.7,82.4c-52,50.6-89.4,109.7-102.7,181.8
			c-18.7,101.2,5.4,192,69.1,272.6c24.3,30.8,53.8,55.5,87.5,75.6c4.7,2.8,8.6,6.9,12.9,10.4C767.8,1061.4,767.2,1062.7,766.7,1064z
			"/>
		<path class="st0" d="M1506.6,1073.6c-62.4-5.3-119.7-10.8-177.1-14.8c-54.8-3.7-108-14.3-160-31.3c-26.6-8.7-35.3-13.1-11.7-37.4
			c44.2-45.6,74.9-99.9,84.3-163.2c4.9-33,3.4-67.2,2.8-100.8c-0.3-18.5,2.9-23.2,21.3-19.2c28.6,6.3,57.2,12.8,85.7,19.3
			c17.5,4,20.4,9.3,15.5,27c-5.1,18.7-11,37.2-15,56.1c-7.5,35.2,5.2,62.2,38.7,75.4c23.6,9.3,48.9,16,74,19.7
			c54.7,8.1,108.6,2.8,161.2-15.4c48-16.6,82.6-46.5,100.4-94.9c9-24.6,12.6-26,39.2-24.3c22.5,1.4,45,2.1,67.5,3
			c72.4,2.8,144.8,5.6,217.3,8.4c20.7,0.8,24.3,6.3,17.8,26.3c-25.2,77.7-77,133-146.2,173.8c-68.5,40.3-143.7,59.8-221.5,70.2
			C1634.6,1060.5,1568.3,1066.7,1506.6,1073.6z"/>
		<path class="st0" d="M2255.2,1111.4c730.5,0,1461,0,2191.5,0c4.5,0,9,0,13.5,0c19.7,0.1,20.7,0.8,21,15.8
			c0.4,18.7-4.4,24.3-21.8,25.1c-4.5,0.2-9,0.1-13.5,0.1c-1461.9,0-2923.8,0-4385.7-0.1c-5.4,0-10.8,0.2-16.2-0.2
			c-14.7-1.1-20.4-7.3-19.9-21.5c0.4-13.3,6-18.6,20.7-19.1c6.3-0.2,12.6-0.1,18.9-0.1C794.2,1111.4,1524.7,1111.4,2255.2,1111.4z"
			/>
		<path class="st0" d="M1220.8,765.4c3.1,170.3-137.9,298.1-287,303.6c-179.5,6.6-314.9-140.3-314-303.6
			c0.9-163.8,126.5-304.4,301.2-304.8C1096.2,460.2,1224.1,605.3,1220.8,765.4z M738.2,762.9c-2.5,90.2,68,186.9,180,187.6
			c93.8,0.6,176.1-66,185.7-174.5c9.2-104.8-73.7-197.9-184.1-196.9C830.4,579.9,740.1,637.7,738.2,762.9z"/>
		<path class="st0" d="M3284.7,764.2c-3-154.2,128.7-305.4,296.2-305.5c167.5-0.1,305.4,133.1,304.8,303.2
			c-0.6,185.7-149.5,304.2-285.3,306.2C3409.7,1070.8,3283.9,923.5,3284.7,764.2z M3588,949.2c96.1,3.6,184.9-86.3,183.3-185.5
			c-1.7-104-77.7-186.8-192.4-186.6c-87.7,0.1-176.2,77.4-177.1,184.9C3401,864.2,3485.8,949.1,3588,949.2z"/>
		<path class="st0" d="M501.9,28.9c35.6,0,71.2-0.1,106.8,0c21.1,0.1,25.6,5,20.3,25.2c-19.1,73.3-38.5,146.4-58.2,219.5
			c-4.7,17.7-20.2,24.4-35,31.2c-38.9,17.9-77.3,36.7-110.9,63.9c-55.5,45-90.1,103.3-110.6,170.9c-6.9,22.9-13.2,45.9-21,68.5
			c-6.4,18.4-14,20.5-30.6,10.3c-40.6-25.1-81-50.6-121.7-75.6c-13.1-8-18.7-18.7-16-34c16.8-95.9,33.5-191.7,50-287.6
			c2.3-13.3,8.4-21.4,22.5-22.6c87.6-7.1,135.8-60.5,162.5-138.9c1.6-4.7,3.3-9.3,5.2-13.9c4.6-11.8,12.8-17.3,26-17.2
			C427.9,29.2,464.9,28.9,501.9,28.9z"/>
		<path class="st0" d="M3925.2,1010.2c11.8-15.1,22.9-30.9,35.5-45.3c43.9-49.9,53.1-106.6,35.3-169.2c-4.1-14.4-8.9-17.6-23.5-15.6
			c-27.7,3.8-32.1-0.6-33.2-28.7c-1.8-50.1-13.4-98-35.1-143.4c-1.9-4.1-4.5-7.9-5.9-12.1c-1.6-4.9-2.1-10.2-3.1-15.3
			c5-0.3,10.3-1.9,15-0.8c157.9,36,313.1,81.2,464.3,139.8c9.7,3.7,19.5,7.1,29,11.2c4.2,1.8,7.9,4.8,11.8,7.2
			c-0.1,1.6-0.2,3.2-0.3,4.9c-12,2-23.9,4.7-36,5.9c-46.1,4.9-92.2,9.3-138.4,13.8c-11.4,1.1-15.1,6.7-11.1,17.4
			c9.6,25.7,18,52.1,29.5,76.9c3.9,8.5,14.7,16.1,24,19.5c24.5,9,50.3,14.4,74.9,23c47,16.5,82.9,46.6,105.2,91.8
			c8.4,17.1,4.3,23.9-14.9,25.3c-4,0.3-8.1,0.2-12.2,0.2c-160.5,0-320.9,0-481.4-0.1c-9.2,0-18.5-1.5-27.7-2.3
			C3926.4,1013.1,3925.8,1011.7,3925.2,1010.2z"/>
		<path class="st0" d="M1558.3,510.9c-5.1,0.7-10.3,2.6-15.2,1.9c-60.8-8.4-121.7-17.7-178.2-43c-27.3-12.2-52.8-29-78.1-45.2
			c-5.4-3.4-10.1-14.3-8.9-20.6c11.6-63,33.7-120.9,87-161.4c44.3-33.6,95.5-43,149.6-39.9c42.8,2.5,82.9,14.8,121.2,34.7
			c38.9,20.3,61.8,52.7,77.6,91.7c3.5,8.8,6.4,17.8,9,26.9c3.3,11.9,0.3,16.6-11.8,16.6c-45.5,0.3-89.9-5-131.3-25.9
			c-12.8-6.5-26.3-11.9-39.8-16.7c-16.1-5.7-32.4-6.1-45.5,6.9c-14.5,14.4-20.3,32-13.7,52c10.2,31.3,28.2,58.2,49.6,83
			c9.9,11.5,20,22.9,30,34.4C1559.2,508,1558.7,509.4,1558.3,510.9z"/>
		<path class="st0" d="M455.6,1065.6c-4.9,1-9.8,2.9-14.7,2.9c-131.2,0.2-262.3,0.2-393.5,0c-15.5,0-19.7-4.9-17.3-19.9
			c5-30.7,10.3-61.3,16-91.9c3-16.3,9.1-21.1,26.2-21.2c54.5-0.1,109.1-0.5,163.6,0.6c10.4,0.2,24.3,3.8,30.4,11
			c47.3,55.3,109.3,85.8,176.7,107.7c4.5,1.5,8.6,3.9,12.9,5.9C455.9,1062.4,455.8,1064,455.6,1065.6z"/>
		<path class="st0" d="M4372.5,1352.6c3.3-8.7,7-17.3,10-26.2c10.3-31.2,20.1-62.6,30.6-93.8c8.3-24.5,35.9-36.1,59.1-24.3
			c4.4,2.2,8.5,9.9,8.6,15.1c0.6,63.5,0.5,127.1,0.2,190.6c-0.1,10.9-4.7,19.2-17.5,19.8c-12.6,0.6-19.5-5.8-21.8-17.5
			c-1-5.3-1.3-10.7-1.3-16.1c-0.1-32.4,0-64.9,0-97.3c0-4.6,0-9.3,0-13.9c-1.4-0.3-2.8-0.5-4.1-0.8c-2.7,6.4-5.9,12.6-8.1,19.2
			c-10.8,32-21.2,64.2-32.3,96.1c-2.9,8.3-7,16.9-12.6,23.5c-9.1,10.7-23.2,9.2-30.9-2.6c-3.6-5.6-6.1-12.1-8.3-18.4
			c-12.4-35.8-24.5-71.6-36.8-107.4c-1.5-4.5-3.5-8.8-5.3-13.2c-1.1,0.2-2.3,0.3-3.4,0.5c-0.4,5.1-1.2,10.1-1.2,15.2
			c-0.1,34.2,0,68.5,0,102.7c0,4.5,0.1,9.1-0.6,13.5c-1.5,10.4-7.8,15.8-18.3,16.5c-10.9,0.7-17.2-5.1-18.9-15.2
			c-1.7-10.2-3-20.6-3-30.9c-0.3-49.6-0.2-99.1-0.1-148.7c0-21.4,4.6-31.4,17-32.3c28.8-2,42.9-3.3,51.3,21.7
			c11.9,35.4,23.6,71,35.6,106.4c2.1,6.2,5.1,12,7.6,18C4369.5,1352.8,4371,1352.7,4372.5,1352.6z"/>
		<path class="st0" d="M148.9,898.2c-24.3,0-48.6,0.2-72.9,0c-16.5-0.1-20.2-4.6-17.6-20.5c5.7-35.1,11.5-70.2,17.4-105.2
			c2.6-15.5,8.9-21,24.5-21c42.8-0.1,85.5-0.1,128.3,0c17.1,0.1,19.6,3.3,14.7,19.2c-11.1,36-14.1,72.2-5,109.2
			c3.3,13.4-1,18.2-15.2,18.4C198.4,898.3,173.6,898.2,148.9,898.2z"/>
		<path class="st0" d="M3379.6,1335c0-5.7,0-11.4,0-17.2c0-28.9-0.3-57.7,0.3-86.6c0.4-16.7,8-24.5,21.2-24.3
			c11.7,0.2,19.2,9.1,19.3,24.7c0.2,59.1,0.5,118.2-0.4,177.2c-0.1,7.9-4.9,20.2-10.6,22.4c-6.7,2.6-19.7-0.8-25-6.3
			c-11.6-12.2-21.3-26.6-29.5-41.4c-13.5-24.4-25.2-49.9-37.8-74.8c-2.3-4.7-5.2-9.1-7.8-13.6c-1.2,0.2-2.4,0.4-3.5,0.5
			c-0.5,4.9-1.5,9.8-1.6,14.8c-0.1,30.7,0,61.3-0.1,92c-0.1,21-6.5,31-19.9,31.4c-14.1,0.5-23-9.8-23.2-30.4
			c-0.6-57.7-0.5-115.4-0.2-173.2c0.1-18.8,13.6-27.8,32.5-23.1c15.1,3.7,22.6,15.2,29,28.1c15.2,30.7,30.8,61.2,46.4,91.7
			c1.7,3.4,4.6,6.3,6.9,9.4C3376.9,1335.9,3378.3,1335.4,3379.6,1335z"/>
		<path class="st0" d="M1163.6,1297c0,7,0.1,14,0,21c-0.4,30.6,0.1,61.3-1.8,91.8c-1.1,18.1-9.2,25-21.4,23.8
			c-10.8-1.1-17.6-10.7-17.8-26.4c-0.4-55.4-0.7-110.7-1-166.1c0-1.3,0-2.7-0.2-4c-2.4-12-1.2-22.9,10.9-29.1
			c10.9-5.6,27.9-1.6,37.1,8.7c3.8,4.3,6.7,9.6,9.3,14.8c16.8,32.4,33.4,64.9,50.2,97.3c1.5,2.9,4,5.3,8.6,11.3
			c0.7-8.7,1.4-13.3,1.4-18c0.1-31.1,0-62.2,0-93.3c0-10.8,2.9-19.7,15.3-22c15.1-2.8,24.6,4.3,25.6,19.7c0.3,5.4,0.2,10.8,0.2,16.2
			c0,50.9,0.2,101.9-0.1,152.8c0,7.1-0.9,14.5-3.1,21.2c-6.1,18.4-21.6,22.9-35.5,9.2c-8.7-8.7-15.5-19.9-21.3-30.9
			c-14.5-27.5-28-55.6-42-83.3c-2.8-5.4-6.4-10.4-9.7-15.6C1166.9,1296.3,1165.2,1296.7,1163.6,1297z"/>
		<path class="st0" d="M1725.4,524.7c-20.6-0.1-25.1-3.6-29.9-23.5c-5-20.6-9.9-41.2-14.9-61.8c-1.1-4.4-1.4-9.7-4.1-12.7
			c-4.4-4.8-10.5-7.9-15.8-11.8c-2.3,5.7-7.2,11.9-6.3,17c4.4,24.4,10.4,48.4,15.8,72.6c3.3,15,1.3,16.4-13.6,18.2
			c-34.9,4.1-62.7-9.7-85.9-33.7c-27.6-28.5-53.6-58.5-68.5-96.2c-2.1-5.4-4-11.1-4.7-16.9c-2.1-15.9,8-28.9,23.8-27.2
			c14.4,1.6,29.7,5.1,42.2,12.1c36.1,20.2,75.2,26.8,115.3,30.6c12.5,1.2,25.1,1.8,37.7,3.1c14.6,1.6,20.7,8.7,23.4,26.7
			c3.7,24.9,7.1,49.9,10.7,74.9C1753.8,520.9,1750.3,524.8,1725.4,524.7z M1646.1,497.5c-7.4-26.8-14.8-53.5-22.5-80.3
			c-0.7-2.4-2.7-5-4.8-6.4c-3.8-2.6-8.2-4.3-12.3-6.4c-1.9,5.1-6.1,10.6-5.3,15.1c3.9,20.7,8.1,41.5,14.5,61.6
			c2.8,8.7,10.5,16.4,17.5,22.9C1639.3,509.4,1644,506,1646.1,497.5z"/>
		<path class="st0" d="M2629.9,1318.6c0-29.3-0.2-58.6,0-87.8c0.1-19.8,5.5-25.3,25.1-24.4c23.3,1,46.7,2.2,70,4.7
			c24.4,2.6,42.1,15.6,50,39.5c8.5,25.7,5.1,49.8-12.3,71.2c-3.4,4.2-7.5,7.8-11.4,11.5c-12.2,11.6-12.5,15.3-3.6,30
			c8.4,13.9,16.6,27.9,24.2,42.2c4.4,8.3,9.2,17.7-1.3,25.3c-8,5.9-24.2,4.2-31.3-3.7c-4.7-5.3-8.4-11.7-11.9-18
			c-8.7-15.8-16.9-31.8-25.3-47.7c-4.2-8-10.6-16.3-19.6-12.3c-5.5,2.4-9.9,12.1-10.9,19.1c-1.8,12.4-0.4,25.2-0.6,37.8
			c-0.3,18.4-7.2,27.8-20.3,28c-13.6,0.2-20.5-8.7-20.7-27.4C2629.8,1377.2,2629.9,1347.9,2629.9,1318.6z M2671,1274.9
			c0.1,0,0.1,0,0.2,0c0,5.8-1.1,12,0.3,17.4c1.4,5.2,4.3,11.3,8.5,14.3c8.8,6.3,40.8,0.3,48.2-7.8c9.6-10.6,9.3-23.2,5.3-35.5
			c-3.6-11-13.7-14.7-24.5-16c-6.2-0.8-12.5-1.4-18.7-2c-12.9-1.4-18.3,3-19.2,16.2C2670.8,1265.9,2671,1270.4,2671,1274.9z"/>
		<path class="st0" d="M1775,1317.2c0-27-0.1-54.1,0-81.1c0.1-26.7,6.6-31.7,32.6-28.7c19.2,2.2,38.6,2.5,57.9,4.1
			c29.8,2.4,48.4,16.2,56.2,40.7c9,28.4,0.1,61.6-21.3,79.1c-16.7,13.7-16.9,15.9-5.5,34.3c8.3,13.4,16.9,26.8,23.2,41.2
			c2.7,6.3,2.3,19.9-1,21.6c-7.3,3.7-18.2,4.3-26,1.5c-6.6-2.4-11.8-10.7-15.8-17.5c-8.9-15.1-16.6-31-24.8-46.5
			c-1.5-2.8-2.6-6.2-4.9-8c-5.7-4.4-12.1-8.1-18.2-12.1c-3,6.9-7.8,13.6-8.6,20.7c-1.8,15.6-1,31.5-2.2,47.1
			c-0.9,11.3-6.5,20-19.4,20.2c-13.6,0.2-19.6-8.9-20.8-20.5c-1.5-14.7-1.2-29.7-1.4-44.5C1774.8,1351.5,1775,1334.3,1775,1317.2z
			 M1813.9,1281.4c-0.3,17.3,7.5,27.9,23.7,28.5c10,0.4,20.6-2.1,30-5.7c11.6-4.4,14.3-15.9,14.3-27c0-10.6-3.1-20.4-13.6-26.2
			c-30.8-16.8-51.1-6.5-54.2,27.6C1814.1,1279.6,1814,1280.5,1813.9,1281.4z"/>
		<path class="st0" d="M481.4,1317.3c0-29.3-0.1-58.6,0-87.8c0.1-18.5,7.1-24.1,25-22.5c20.6,1.9,41.2,3.5,61.9,4.3
			c29.9,1.3,49.5,12.9,57.1,34.9c11.4,32.8,4.3,66.1-17.9,84.5c-17.8,14.8-17.8,15-5.9,35.2c8.7,14.7,17.6,29.4,25.3,44.6
			c7,13.7,0.7,22.9-14.6,23.3c-15.8,0.5-24.9-9.2-31.7-21.5c-8.5-15.4-15.6-31.5-24.2-46.8c-5.2-9.2-10.7-22-23.2-19.1
			c-13.5,3.1-10.4,17-10.7,27.5c-0.3,12.2,0.1,24.3-0.2,36.5c-0.4,16-6.8,23.3-20,23.4c-12.3,0.1-20.6-8.4-20.9-23.3
			c-0.5-31.1-0.1-62.2-0.1-93.2C481.5,1317.3,481.4,1317.3,481.4,1317.3z M522.6,1278.9c0,30.2,3.8,33.4,33.8,29.4
			c3.6-0.5,7.1-1.3,10.6-2.1c13.2-3,19.9-10.8,20.2-24.7c0.6-24-7-32.8-31-34.4c-3.6-0.2-7.2-0.6-10.7-1.1
			c-15.8-2.2-21.8,2.4-22.8,18.1C522.3,1268.9,522.6,1273.9,522.6,1278.9z"/>
		<path class="st0" d="M660.1,1349.8c0-25.5-0.2-48.9,0-72.2c0.5-45.3,22.5-65.6,65.7-73.4c28.1-5.1,55.7,0.7,75.5,23.1
			c8.7,9.9,16.8,23.9,17.7,36.5c2.4,33.9,2.5,68.3,0.2,102.2c-2.5,35.8-22.5,59.8-51.9,66.5c-36.3,8.2-69.1,1.5-94-28.4
			C659.5,1387.8,658.8,1367.8,660.1,1349.8z M780.1,1324.4c-1.1-18.5-1.2-35.1-3.2-51.6c-2.7-21.8-14.2-31-36.4-31.1
			c-21.4-0.1-35.2,9.9-36.3,31.4c-1.6,31.3-1,62.7,0.5,94c0.7,16.2,14.9,27.5,30.9,28.4c22.5,1.3,37.2-6.7,40.6-24.7
			C779.2,1355.1,779,1338.7,780.1,1324.4z"/>
		<path class="st0" d="M3502.4,1318.2c0,14.9-1.1,29.8,0.3,44.5c1.9,20.2,13.6,31.2,31.6,32.7c19.8,1.6,34.3-7.6,40.8-26.1
			c5.8-16.4-0.6-26.2-18-27.4c-14-1-20.3-7.3-19.8-20c0.4-11.9,6.7-17.9,20.4-18.2c13.1-0.4,26.1-0.4,39.2,0
			c15.7,0.5,20.9,6,21.2,21.6c0.2,11.7,0.3,23.4,0,35.1c-1,39.2-34.9,75.8-72.5,75.6c-49.1-0.2-83.9-23.7-86.6-71.7
			c-2-34.4,0-69.3,2.5-103.8c2.2-30.6,28.2-52.5,64.7-56.7c31.3-3.6,58.7,4.6,80.2,29.3c7.4,8.6,7.1,16.1-0.2,23.8
			c-7.8,8.3-16.4,10.4-26.2,2.6c-11.2-9-22-18.4-38.1-18.1c-26,0.6-39.4,13-40,38.9c-0.3,12.6-0.1,25.2-0.1,37.8
			C3502,1318.2,3502.2,1318.2,3502.4,1318.2z"/>
		<path class="st0" d="M3885.6,1316.8c0-27-0.1-54.1,0-81.1c0.1-24.9,4.7-29.5,28.9-29.6c30.2-0.1,60.4,0,90.6,0
			c9,0,17,1.4,21.3,10.8c6.4,14-1,27-16.4,27.4c-20.3,0.5-40.6,0.1-60.8,0.2c-15.9,0.1-19.2,3.3-20,18.6c-1.7,34.1-0.9,35,33,35
			c11.3,0,22.6-0.3,33.8,0.2c12.9,0.6,17.3,6.6,17.2,20.7c0,11.8-5.5,17.5-17.3,17.4c-16.7-0.1-33.4,0.2-50,0
			c-10.6-0.2-15.9,4.8-16.5,15.2c-0.1,0.9-0.1,1.8-0.1,2.7c-2.2,36.6-0.4,38.4,35.8,38.4c14.9,0,29.7,0.1,44.6,0
			c11.3,0,18.1,5.1,18.7,16.7c0.7,12.8-6.2,23.7-16.9,23.9c-35.6,0.6-71.2,0.7-106.8-0.4c-5.4-0.2-12.3-7.1-15.4-12.6
			c-3.2-5.9-3.5-13.9-3.6-21C3885.4,1371.8,3885.6,1344.3,3885.6,1316.8z"/>
		<path class="st0" d="M1599,1317.7c0-28.8-0.1-57.7,0.1-86.5c0.1-19.6,5.4-24.8,25.1-24.9c31.1-0.2,62.2-0.1,93.3,0
			c11.1,0,20.9,2.6,22.6,16.1c2,15.5-3.4,21.9-19,22.1c-19.8,0.2-39.7,0.6-59.5-0.1c-13.1-0.5-19.2,5.6-20.5,17.8
			c-0.4,3.6-0.8,7.2-0.8,10.8c0,21.2,3.9,25.1,25.2,25.2c14,0.1,28-0.2,41.9,0.2c13.4,0.4,19.3,6.5,19.3,19c0,12.5-6,18.7-19.3,19
			c-15.3,0.4-30.7,0-46,0.2c-14.7,0.2-19.3,4.3-20.8,18.8c-0.5,4.5-0.4,9-0.3,13.5c0.6,18.9,5.5,23.7,24.7,23.8
			c18.5,0.2,37,0,55.4,0.1c11,0,19.6,2.9,19.9,16.4c0.3,14.6-6.1,24.1-19.3,24.4c-33.8,0.6-67.6,0.6-101.4,0
			c-13.4-0.2-20.1-9.2-20.3-26.7C1598.8,1377.2,1599.1,1347.4,1599,1317.7C1599.1,1317.7,1599.1,1317.7,1599,1317.7z"/>
		<path class="st0" d="M4229.8,1419.6c-3,3.6-6.3,11.4-11.3,12.7c-7,1.8-16.7,0.9-22.4-2.9c-6-4-10.2-12.5-12.4-19.8
			c-4.3-13.8-12.3-20-26.7-19.3c-12.1,0.6-24.3,0.7-36.5,0.1c-13.4-0.7-20.8,4.5-24.2,17.9c-1.9,7.4-6.4,15-11.8,20.5
			c-7.4,7.5-17.4,7.1-26.2,1.5c-8.2-5.3-7.8-13.4-5.2-21.7c19.2-60,38.2-120.1,57.6-180.1c5.6-17.4,12.8-22.2,29.5-22.1
			c16.2,0,22.8,4.4,28.3,21.5c19.8,60.3,39.1,120.8,58.6,181.2C4228,1411.4,4228.4,1414.1,4229.8,1419.6z M4142.6,1270.8
			c-2.2,0-4.4,0-6.7,0c-6.5,23.6-13.8,46.9-19.1,70.8c-2.3,10.2,7.4,11.6,14.5,10.4c10.7-1.8,25.2,7.4,31.2-9.4
			c0.8-2.2-0.6-5.3-1.3-7.9c-2.5-9.6-5.1-19.1-7.9-28.6C4149.9,1294.3,4146.2,1282.6,4142.6,1270.8z"/>
		<path class="st0" d="M365.5,1415c-0.4,17.7-15.6,25.6-30,15.1c-7.3-5.3-12.1-15.2-15.7-24c-4.3-10.6-10.1-16.3-22-15.8
			c-13.5,0.5-27.1,0.7-40.6,0c-13.8-0.7-19.6,6-24.1,18.4c-3.2,8.9-9.9,18.5-17.8,23.3c-13.6,8.3-27.7-3-25.2-19
			c1.2-8,3.8-15.8,6.3-23.5c17-53.2,34.1-106.4,51.3-159.6c5.6-17.2,13.9-23.4,30.2-23.7c13.4-0.3,22.9,5.8,27,18.3
			c19.9,60.8,39.5,121.7,59.1,182.6C365,1410.1,365.2,1413.3,365.5,1415z M280.5,1271c-2-0.2-4-0.4-6-0.6c-5.1,16-10.8,31.8-15.2,48
			c-9.7,35.7-13.8,34.3,28.9,33.7c9.5-0.1,13.5-5.6,11.3-14.1C293.7,1315.5,286.9,1293.3,280.5,1271z"/>
		<path class="st0" d="M2978.1,1416.3c-2.1,3.4-4.6,12.3-9.1,13.6c-10.2,2.8-21.9,2.7-28.9-8.4c-2.1-3.4-3.3-7.4-4.4-11.3
			c-4.1-14.1-12.9-20.8-27.9-20c-7.6,0.4-15.3-0.2-22.9-1.2c-19.6-2.5-33.3,5.4-40.5,23.7c-7.5,19-15.4,25.1-27.2,21.1
			c-12.8-4.3-15.2-14-8.7-34.1c18.3-56.6,36.5-113.2,54.8-169.8c6.2-19.2,11.8-23.8,27.8-23.8c16.7,0,24.9,5.8,30.4,23.2
			c17.9,55.8,35.5,111.6,53,167.5C2976.2,1401.9,2976.6,1407.4,2978.1,1416.3z M2894.4,1271.3c-2.1,0-4.1-0.1-6.2-0.1
			c-6.5,23.1-13.4,46.1-19.2,69.4c-1.9,7.6,3.8,12.3,11.2,11.3c11.5-1.6,25.3,6.7,34.2-7.2c0.4-0.6,0.2-1.8,0-2.6
			C2907.8,1318.4,2901.1,1294.8,2894.4,1271.3z"/>
		<path class="st0" d="M927.8,1297.3c0-23-0.1-45.9,0-68.9c0.1-15.7,5.6-22,18.9-22.2c14.9-0.3,22,6.4,22.1,22.4
			c0.3,42.3,0,84.7,0.2,127c0.1,21.5,9.8,35.7,26,39.5c24.1,5.7,43.1-10.3,43.6-38c0.6-37.8,0.2-75.7,0.2-113.5
			c0-4.1-0.3-8.2,0.2-12.1c0.6-4.4,1.5-8.9,3.2-13c3.5-8.4,9.1-14.8,19.3-13.8c10.6,1.1,16.4,8,17.1,17.9c1.1,14.3,1,28.8,1,43.2
			c0.1,32,0.6,64-0.2,95.9c-1.5,57.8-61.4,93.4-112.7,66.8c-24.7-12.8-37.3-35-38.8-62.4c-1.2-22.9-0.3-45.9-0.3-68.9
			C927.9,1297.3,927.8,1297.3,927.8,1297.3z"/>
		<path class="st0" d="M2032.4,1436.8c-28.7-1-51.1-10.1-70-27.9c-6.5-6.1-9.7-12.9-4.7-21.6c5.3-9.1,13.3-12.4,22.9-9.6
			c6.8,2,13,6.1,19.2,9.6c14.5,8.2,30.1,12.2,45,3.7c7.2-4.1,15.1-13.5,15.6-21c0.4-7.4-6.3-18.7-13-22.3
			c-12.8-6.9-27.9-9.8-42.1-13.9c-17.3-4.9-34-11.4-42.3-28.6c-13.9-28.8-12.5-78.8,34.6-96.6c34.7-13.1,63.3-1.1,92,14.7
			c3.8,2.1,7.9,11.4,6.3,14.1c-3.9,6.8-10.1,14-17.1,16.6c-5.4,2-13.3-2.8-20.1-4.5c-11.2-2.7-22.3-7-33.5-7.3
			c-12.7-0.3-22.9,10.8-24.7,22.9c-1.7,11.5,4.9,22.1,18.1,26.7c14,4.8,28.6,8.1,42.7,12.8c32,10.6,45.6,31.2,44.2,65.6
			c-1.2,29.5-22.4,56.2-50.6,62.9C2046.6,1435.2,2038.1,1435.9,2032.4,1436.8z"/>
		<path class="st0" d="M1489,1355.5c2.3-6,5.1-12,6.8-18.2c9.8-33.8,18.9-67.7,29.2-101.3c2.7-8.7,7-18.3,13.7-23.8
			c5.4-4.5,16.3-6.2,23.1-3.9c4.3,1.4,8.2,12.9,7.3,19c-2.2,14.6-7.2,28.8-11.5,43c-13.7,45.3-27.6,90.5-41.5,135.8
			c-1.1,3.4-2.4,6.8-4,10.1c-5.5,11.7-14.2,18.2-27.6,17.9c-13.3-0.2-20.9-7.9-24.6-19.5c-9.6-29.6-18.9-59.3-28-89
			c-9.7-31.4-19.3-62.9-28.6-94.5c-2.4-8.3-7.4-17.8,4.8-23.3c12.1-5.4,27.9-1.1,33.1,9.7c3.9,8.1,6.5,16.8,9.1,25.4
			c9.6,32.4,18.8,65,28.4,97.4c1.6,5.3,4.5,10.1,6.8,15.2C1486.6,1355.5,1487.8,1355.5,1489,1355.5z"/>
		<path class="st0" d="M21.5,1315.1c0-11.3,0.1-22.5,0-33.8c-0.3-52.9,40.8-86.8,93.2-76.9c18.7,3.5,35.2,11.1,48.1,25.4
			c7.3,8,11.5,16.6,2.5,26.1c-8.7,9.2-20.1,9.8-29.8,0.9c-13.5-12.5-28.6-18.2-47-13.5c-11.3,2.8-19.2,9.9-19.8,21.2
			c-1.6,31-2.4,62-2.4,93c0,7.2,3.6,15,7.1,21.6c10,18.5,27.4,23.5,45.8,13.2c7.8-4.4,14.8-10.2,22.5-14.9c9.1-5.5,17.4-3.5,24,4.6
			c6.4,7.7,3.7,14.7-1.7,22c-20.7,27.8-53.3,39.8-84.5,30.5c-34.3-10.2-56.3-37.9-57.8-73.4c-0.6-15.3-0.1-30.6-0.1-46
			C21.6,1315.1,21.6,1315.1,21.5,1315.1z"/>
		<path class="st0" d="M2997.9,1315.9c0-13.5-0.3-27,0.1-40.6c0.7-29.7,13.3-52.4,41.2-64.2c30.6-12.9,60.6-12.3,88,8.9
			c3.9,3,7.1,6.9,10.6,10.4c6.7,6.7,12.8,13.2,4.4,23c-9.1,10.6-19,12.8-29.6,5.5c-4.1-2.8-7.4-6.6-11.3-9.6
			c-23.8-17.8-54.6-7.6-57.5,21.6c-3.2,32-3.1,64.7-0.3,96.7c2.6,29.1,36.6,38,60.5,17.6c7.3-6.3,13.8-12.9,24.9-9
			c16.2,5.6,19.7,16.5,9,29.8c-21.5,26.6-55.5,37.6-86,27.8c-31.4-10.1-52.3-38.3-53.9-73.6
			C2997.4,1345.6,2998,1330.7,2997.9,1315.9C2998,1315.9,2998,1315.9,2997.9,1315.9z"/>
		<path class="st0" d="M2430.8,1398.4c-2.6-22.5-1.5-46.3-8.8-67.2c-9.1-26.1-25-49.8-38-74.4c-5.3-10-11.3-19.6-16-29.8
			c-5.5-12-2.1-17.4,10.9-20.1c15.6-3.2,27.5,2.2,35.8,17.6c8.2,15.1,15.2,30.7,23.3,45.8c2.9,5.3,7.6,9.6,11.5,14.3
			c3.9-4.6,8.5-8.7,11.4-13.8c8.4-14.9,16-30.3,24.2-45.3c7-12.9,17.5-20.4,32.8-19.5c15,0.9,19.6,8,12.5,21.3
			c-14.9,27.8-30.1,55.5-46.1,82.6c-9.5,16.1-14.5,32.4-14,51.2c0.5,19.3-0.7,38.7-2.4,57.9c-0.8,8.9-7.3,14.3-16.8,14.7
			c-9.5,0.4-17.2-2.9-20.3-12.3c-2.3-7.2-3.3-14.8-4.9-22.3C2427.6,1398.9,2429.2,1398.7,2430.8,1398.4z"/>
		<path class="st0" d="M2297.4,1334.9c0,24.3,0.4,48.7-0.1,73c-0.3,16.2-7,24.8-18.3,25.9c-12.2,1.2-21.3-4.7-22.2-18
			c-1.8-25.1-2-50.3-2-75.4c0-25.6,1.4-51.3,1.4-76.9c0-13.7-5.7-18.4-19.2-18.8c-7.2-0.2-14.4-0.1-21.6-0.2
			c-9.6,0-15.3-4.9-16.6-14.3c-1.3-9.2,1.2-17.4,10.4-21.3c4.4-1.9,9.6-2.5,14.5-2.6c34.7-0.2,69.4-0.1,104-0.1
			c3.1,0,7.5-0.7,9.2,0.9c6,6,14.4,12.4,15.7,19.7c1.7,9.8-7.4,15.8-17.2,17.1c-6.6,0.9-13.5,0.8-20.2,0.5
			c-12.5-0.6-18,4.5-17.7,17.5C2297.9,1286.2,2297.5,1310.5,2297.4,1334.9C2297.4,1334.9,2297.4,1334.9,2297.4,1334.9z"/>
		<path class="st0" d="M3761.2,1334.8c0-23.4,0.1-46.8,0-70.2c-0.1-17.1-2.9-19.7-19.5-20c-6.3-0.1-12.6,0-18.9-0.1
			c-11.2-0.2-17.8-5.6-18.3-17.1c-0.6-12.3,5.6-20.5,18-20.6c40.1-0.6,80.1-0.5,120.2-0.1c11.5,0.1,19.1,9.3,18.4,20.6
			c-0.8,12-7.7,17.7-19.6,17.3c-0.9,0-1.8,0-2.7,0c-38-0.7-36.6,0.5-36.4,37.7c0.2,40.5,0.1,81,0,121.5c0,4.5,0.1,9-0.5,13.5
			c-1.4,9.6-7,15.4-16.8,16.5c-10.3,1.2-17.9-2.7-21-12.8c-1.8-5.9-2.5-12.4-2.6-18.6C3761,1379.8,3761.2,1357.3,3761.2,1334.8z"/>
		<path class="st0" d="M2129.3,1318.6c0-29.3-0.1-58.6,0.1-87.9c0.1-17.8,6.1-24.4,21.4-24.6c15.3-0.2,22,6.2,22.1,24
			c0.3,58.1,0.3,116.2,0,174.3c-0.1,10.8-1.7,22.3-13.1,27.8c-15.2,7.3-29.8-3.8-30.2-23.1C2129,1379,2129.4,1348.8,2129.3,1318.6
			C2129.3,1318.6,2129.3,1318.6,2129.3,1318.6z"/>
		<path class="st0" d="M3176.4,1317.4c0-29.8-0.1-59.5,0.1-89.3c0.1-15.7,5.7-21.7,19.3-21.9c15.3-0.2,21.9,6.3,21.9,22.3
			c0.1,60.4,0.2,120.9,0,181.3c-0.1,16.6-7,24.2-20.8,24c-13.3-0.1-20.2-7.4-20.3-23.1C3176.3,1379.6,3176.5,1348.5,3176.4,1317.4
			C3176.4,1317.4,3176.4,1317.4,3176.4,1317.4z"/>
		<path class="st0" d="M1325.6,1318.7c0-30.2-0.1-60.4,0-90.6c0.1-15.1,6-21.3,19.6-21.8c14.1-0.5,21.2,6.1,21.3,21.7
			c0.3,60.4,0.3,120.8,0,181.3c-0.1,17.2-8.1,25.3-22,24.5c-12.6-0.7-18.7-7.8-18.9-23.1C1325.4,1380,1325.6,1349.4,1325.6,1318.7z"
			/>
		<path class="st0" d="M435.9,1317.5c0,28.4,0.3,56.7-0.2,85.1c-0.2,7.4-1.6,15.7-5.4,21.7c-3,4.7-10.9,9.1-16.1,8.6
			c-5.3-0.4-12.1-6.1-14.5-11.2c-3.3-7-4.3-15.7-4.4-23.6c-0.3-54.9-0.6-109.9,0.2-164.8c0.1-8,3.6-18.8,9.4-23.4
			c13.4-10.6,30.5-0.7,30.8,17c0.6,30.2,0.2,60.3,0.2,90.5C435.8,1317.5,435.9,1317.5,435.9,1317.5z"/>
		<path class="st0" d="M920.3,599.9c92.1,0,165.1,73.6,165,166.3c-0.1,94.8-75.2,163.2-177.4,164.6
			c-80.6,1.1-154.7-92.6-151.5-166.2C760.4,672.8,829.5,599.8,920.3,599.9z M901.5,695.6c1.6-0.5,3.2-0.9,4.7-1.4
			c0-16.5,0.7-33-0.4-49.4c-0.4-5.7-5.1-16-7.6-15.9c-8.9,0.3-17.8,3.9-26.5,6.8c-1.1,0.4-2.1,4.4-1.4,6
			C878.2,661.2,887.3,680,901.5,695.6z M905.1,836.9c-2-0.7-4-1.4-6-2.1c-8.1,13.5-16.9,26.7-24.1,40.7c-2.7,5.2-4.3,16.4-2.2,17.6
			c7.7,4.5,17.1,6.3,26.1,8.2c1.6,0.3,5.9-3.9,5.9-6.2C905.3,875.7,905.1,856.3,905.1,836.9z M874.4,816.5c-1.3-1.4-2.6-2.7-4-4.1
			c-17.8,10.7-36.2,20.7-53.3,32.6c-8,5.5-1.1,12.3,3.7,16.8c5.5,5.1,12.5,16.1,19.7,7.1C853.6,852.8,863.3,834.1,874.4,816.5z
			 M987.3,744.2c0.4,1.2,0.7,2.4,1.1,3.7c20.3,0,40.7,1.3,60.8-0.6c9.3-0.9,9.1-11.1,5.7-18.8c-3-6.9-4.7-18.8-15.5-13.7
			C1021.3,723.1,1004.6,734.2,987.3,744.2z M943.2,833.8c-1.9,0.5-3.7,1-5.6,1.6c0,19.9-1.7,39.9,0.6,59.5
			c1.4,11.7,13.1,5.9,20.2,4.3c7.3-1.6,15.1-6.5,11.3-15C962,866.9,952.2,850.5,943.2,833.8z M971.2,811.7c-1.2,1.3-2.4,2.6-3.6,3.8
			c9.6,16.6,18.8,33.4,28.9,49.6c4.5,7.2,11.4,6.9,17.2,1.3c4.2-4,7.9-8.8,10.6-13.9c1.2-2.3,0.8-8-0.9-9.1
			C1006.2,832.6,988.6,822.2,971.2,811.7z M851.9,748.3c0.4-1.7,0.7-3.3,1.1-5c-16.3-9.1-32.2-19-49-27.1
			c-10.1-4.8-14.5,3.7-17,11.9c-2.4,8-4.4,18.6,6.6,19.6C812.9,749.6,832.5,748.3,851.9,748.3z M936.9,693.6
			c1.6,0.6,3.1,1.3,4.7,1.9c9.4-16.6,20.2-32.6,27.8-50c5.7-13.1-7.9-13.4-15.7-16.2c-8.7-3.2-16.1-0.6-16.6,9.4
			C936.3,657,936.9,675.3,936.9,693.6z M854.7,785.9c-0.5-1.4-1.1-2.7-1.6-4.1c-19.2,0-38.5-0.3-57.7,0.1
			c-10.2,0.3-11.6,7.6-8.9,15.4c2.7,7.8,3.2,21.8,15.5,16.9C820.4,806.9,837.2,795.6,854.7,785.9z M989.4,781.8
			c-0.4,1.4-0.9,2.8-1.3,4.2c13,7.6,25.6,15.8,38.9,22.8c19.1,10.1,29,3.6,28.1-18.3c-0.1-3-4.6-8.2-7.2-8.3
			C1028.4,781.5,1008.9,781.8,989.4,781.8z M868.1,716.7c1.3-1.1,2.7-2.1,4-3.2c-10.1-17.1-19.5-34.6-30.5-51.1
			c-5.4-8.1-12.7-2.9-16.4,2.8c-4.2,6.5-16.5,13.8-5,22.2C835.2,698.5,852,707.1,868.1,716.7z M968.7,711.8c1.7,1.5,3.4,3,5.1,4.5
			c15.2-9.3,30.8-18.1,45.5-28.2c9.4-6.5,4.7-14.1-1.2-20.6c-5.3-5.9-11.9-13-18.6-3.7C988.2,679.1,978.9,695.7,968.7,711.8z
			 M921.2,744.8c-10.7-0.2-19.5,8.7-19.7,20c-0.2,11.7,7.5,19.3,19.6,19.2c10.9,0,19.7-9.1,19.5-20
			C940.3,754.6,930.6,744.9,921.2,744.8z"/>
		<path class="st0" d="M3422.7,762.9c0-100.4,73-165.8,185-165.6c61.4,0.1,144.3,75.3,143.2,167.3c-1.1,90.3-70.4,165.3-163.8,165.1
			C3494.5,929.4,3420,855.7,3422.7,762.9z M3638.3,811.3c-1.4,1.5-2.8,3-4.1,4.5c7.5,13.5,14.9,27.2,22.6,40.5
			c11.7,20.3,14.8,20.5,30.3,3c1.2-1.3,3.3-2.7,3.3-4.1c0.1-4.5,1.1-11.5-1.2-13C3672.7,831.3,3655.4,821.5,3638.3,811.3z
			 M3534.9,714c1.4-1.4,2.7-2.8,4.1-4.2c-10.6-16.9-21-33.9-31.9-50.6c-1.4-2.1-6.9-4.1-8-3.2c-7,6-14.1,12.3-19,19.9
			c-1,1.6,6.3,10,11.1,13.6c8.6,6.4,18,11.9,27.3,17.2C3523.6,709.6,3529.4,711.6,3534.9,714z M3539.5,814c-1.1-1.2-2.3-2.3-3.4-3.5
			c-13.1,7.4-26.2,14.9-39.3,22.3c-23.3,13.3-23.6,17-2.8,34.4c0.3,0.3,0.7,0.9,1,0.9c4.6-0.3,11.8,1,13.3-1.3
			C3519.3,849.6,3529.3,831.7,3539.5,814z M3654.2,779.7c-0.6,1.9-1.1,3.7-1.7,5.6c17.2,9.2,34.2,18.8,51.8,27.3
			c7.2,3.4,14.1,0.2,14.9-8.4c0.7-8.3,9.1-21.7-5-23.8C3694.5,777.6,3674.2,779.7,3654.2,779.7z M3632.6,712.1c1,1.3,2,2.6,3,4
			c16.6-9.4,33.4-18.4,49.6-28.4c3.4-2.1,7.7-9.5,6.7-11.1c-4.7-6.8-10.6-13.2-17.3-17.8c-2.3-1.6-10.6,0.9-12.5,3.8
			C3651.7,678.7,3642.3,695.5,3632.6,712.1z M3654.2,741.3c5.5,3.5,7.3,5.7,9,5.6c16.9-0.4,33.9-0.4,50.6-2.5
			c2.4-0.3,5.5-11,4.9-16.5c-0.8-6.9-3.5-18.9-12.7-15.2C3688.7,719.8,3672.9,730.7,3654.2,741.3z M3606.4,829.9
			c-1.2,0.3-2.4,0.7-3.6,1c0,19.4-1.1,38.9,0.5,58.1c0.7,9.2,9.7,11.6,17.8,7.6c6.4-3.1,19.4-4.1,14.6-14.8
			C3627.6,863.8,3616.3,847.1,3606.4,829.9z M3601.2,694c1.9,0.5,3.9,1.1,5.8,1.6c9.6-17.8,20.6-35,28-53.7
			c3.7-9.2-8.3-11-15.2-13.1c-6.9-2.1-14.9-2.4-15.8,6.9C3602.3,655.1,3602.1,674.5,3601.2,694z M3572.5,836.3
			c-2.4-0.7-4.7-1.4-7.1-2.1c-9.9,16.2-20,32.4-29.3,48.9c-1,1.8,1.8,8,4.2,9.2c5.5,2.7,11.9,4.6,18,4.9c3.2,0.2,9.3-3.3,9.6-5.7
			C3570.1,873.1,3571.1,854.7,3572.5,836.3z M3565.6,695.5c1.1-0.6,2.2-1.2,3.3-1.8c0-17.9,0.2-35.8-0.1-53.6
			c-0.2-12.3-8.9-13.2-18.1-11.7c-8.2,1.4-18.6,4.9-14.2,14.9C3544.6,661.4,3555.7,678.1,3565.6,695.5z M3515,745.2
			c0.5-1.8,1.1-3.6,1.6-5.4c-15.9-8.4-31.7-17-47.7-25.1c-6.3-3.2-13.4-3.1-14.8,5.4c-1.4,8.7-6,22.3,5.7,24.4
			C3477.8,747.4,3496.6,745.2,3515,745.2z M3515.8,787.7c-0.4-1.8-0.8-3.6-1.2-5.4c-18.2,0-36.6-1.9-54.4,0.6
			c-12.2,1.7-7.9,14.1-6.4,22.6c1.1,6.2,4.5,11.9,12.1,8.1C3482.8,805.3,3499.2,796.4,3515.8,787.7z M3585.4,783.7
			c10.9,0.3,21.1-9.7,21-20.5c-0.1-9.9-8.9-19-18.9-19.4c-11-0.4-20.5,8.1-20.7,18.8C3566.6,773.5,3575.4,783.5,3585.4,783.7z"/>
	</g>
	<g>
		<path class="st1" d="M1192.8,288.7c-0.3,4.3-0.4,8.6-1,12.8c-3,19.6-6.3,39.1-9.3,58.7c-11,72.9,19.4,126.8,77.5,167.8
			c40.5,28.5,86.7,44,134.3,55c86.8,20.1,174.7,30.1,263.9,30.9c32.4,0.3,64.7,3.6,97.1,4.8c22.2,0.8,25.8-1.8,32.2-22.5
			c24.9-81,49.4-162.1,74.3-243.1c4.8-15.5,9.8-31,16.5-45.7c8.6-18.9,24.9-29,45.3-29.2c86.1-0.5,172.2-0.3,258.4-0.1
			c5.3,0,10.7,1.4,15.9,2.8c17.6,4.8,24.3,14.7,19.6,32.2c-7.8,29.6-16.7,59-25.6,88.3c-19.7,65.1-39.8,130.2-59.6,195.3
			c-5.2,16.9-1.8,22,15.4,22c60.4,0.2,120.8,0.7,181.3-0.2c48-0.7,94.9-9.7,140.5-24.9c31.9-10.7,58.2-47.7,57.4-81
			c-0.5-20.5-10-36.3-26.8-47.5c-21.9-14.6-46.4-22.4-72.4-23.9c-33.7-2-67.5-2.1-101.3-3.1c-26.6-0.8-53.1-1.6-79.7-2.6
			c-13.2-0.5-16.9-5-13.2-18.5c7.3-26.5,15.5-52.8,23.4-79.1c4.3-14.2,9.2-28.3,13.1-42.7c3.8-14.3,12-20.5,27.3-20.3
			c50,0.7,100.2-1.4,150.1,0.9c94.6,4.3,189,11,279.2,43.9c35.3,12.9,68.8,27.9,98,52.9c52.3,44.8,69,100.2,55.6,166.2
			c-11.7,57.4-44.2,100.5-91.1,134.3c-56.2,40.5-120.5,60.2-187.3,73.5c-12.8,2.5-25.7,5-38.4,8c-20.5,4.8-22.3,10.1-9.3,27.2
			c18.2,24.1,36.8,47.9,55.2,71.8c42.5,55.4,85.3,110.7,127.2,166.6c5.7,7.6,12.2,20.2,9.5,27.2c-4.8,12.9-19,18.4-33.4,18.5
			c-43.3,0.2-86.6-0.2-129.9,0.3c-45.5,0.4-91,1.5-136.5,2.4c-41,0.8-71-16.2-93-51.5c-46.2-74.2-94.2-147.4-141.2-221.1
			c-8.2-13-18.9-19.4-34.4-19.9c-44.1-1.3-88.2-3.4-132.3-5c-76.5-2.9-153-5.1-229.5-8.6c-56.2-2.6-112.3-6.3-168.4-10.6
			c-117.8-9-235-22.5-350.3-49.1c-13.2-3-26-7.4-39.1-10.8c-15.5-4.1-21.5-16.3-27-29.7c-8.5-20.8-16.2-42.1-26.9-61.9
			c-23.2-43.2-55.9-78.7-96.5-105.9c-18.8-12.6-22.1-27.8-19.1-48.6c8.7-60.1,37.4-108.4,83.1-147.3c5.3-4.5,11.4-8,17.1-12
			C1190.2,287.1,1191.5,287.9,1192.8,288.7z"/>
		<path class="st1" d="M2672.5,276.6c6.3-0.5,12.6-1.5,18.8-1.5c271-0.1,542,0,813,0c53.2,0,106.4-0.4,159.6,0.3
			c14.7,0.2,29.5,3.1,44,6.3c14.6,3.2,21.3,12.7,17.6,26.9c-8.7,33.1-17.3,66.4-29.2,98.4c-8.4,22.6-30.6,28-52.7,28.2
			c-55.9,0.5-111.8,0.2-167.7,0.2c-41.5,0-83-0.1-124.4,0c-22.6,0-28.9,4.2-35.4,25.4c-26.5,86.6-52.9,173.3-79.1,260
			c-30.2,99.7-59.9,199.4-90.3,299c-11.1,36.4-29.2,50.5-67.2,50.9c-74.8,0.7-149.7,0.3-224.5,0.1c-13.5,0-27-1.4-40.4-2.5
			c-18.8-1.5-27.6-9.5-24.3-27.8c4.5-25.6,11.9-50.8,19.4-75.8c43.2-142.8,86.7-285.5,130.1-428.3c8.3-27.2,16.9-54.2,24.9-81.5
			c4.9-16.6,1.2-20.5-16.1-18.2c-25.2,3.3-45.7-9.3-60.6-38.4c-12.7-24.9-30.3-45.8-55.1-57.6c-32-15.3-65.3-27.7-98.5-40.2
			c-17.2-6.5-35.4-10.4-53.1-15.7c-3.1-0.9-6-2.9-8.9-4.3C2672.2,279.2,2672.3,277.9,2672.5,276.6z"/>
		<path class="st1" d="M766.7,1064c-3.4,0.6-6.7,1.8-10.1,1.8c-28.8,0-57.9,1.9-86.5-0.7c-49.7-4.6-99.6-9.7-148.6-18.8
			c-59.9-11.2-118.7-28.3-170.9-61.3c-44.8-28.3-79.4-65.5-89.4-119.9c-5.4-29.4-0.4-58.1,8.4-86.5c24.5-78.7,48.5-157.7,72-236.7
			c25-83.9,77-146.4,152.6-188.2c34-18.8,70.7-34.1,107.9-45.7c89.4-27.8,181.4-43.5,275.3-43.6c67.9-0.1,135.8,1.9,203.8,3
			c2.7,0,5.4,0.5,8,1c17.7,2.9,20.8,7.4,15.8,24.5c-8.5,29-17.4,57.8-26.1,86.7c-5.6,18.6-10.9,37.2-16.8,55.6
			c-6.3,19.7-11.7,22.5-32.1,18c-24.6-5.5-48.9-13.5-73.8-16c-96.6-9.6-183.4,13-254.7,82.4c-52,50.6-89.4,109.7-102.7,181.8
			c-18.7,101.2,5.4,192,69.1,272.6c24.3,30.8,53.8,55.5,87.5,75.6c4.7,2.8,8.6,6.9,12.9,10.4C767.8,1061.4,767.2,1062.7,766.7,1064z
			"/>
		<path class="st1" d="M1506.6,1073.6c-62.4-5.3-119.7-10.8-177.1-14.8c-54.8-3.7-108-14.3-160-31.3c-26.6-8.7-35.3-13.1-11.7-37.4
			c44.2-45.6,74.9-99.9,84.3-163.2c4.9-33,3.4-67.2,2.8-100.8c-0.3-18.5,2.9-23.2,21.3-19.2c28.6,6.3,57.2,12.8,85.7,19.3
			c17.5,4,20.4,9.3,15.5,27c-5.1,18.7-11,37.2-15,56.1c-7.5,35.2,5.2,62.2,38.7,75.4c23.6,9.3,48.9,16,74,19.7
			c54.7,8.1,108.6,2.8,161.2-15.4c48-16.6,82.6-46.5,100.4-94.9c9-24.6,12.6-26,39.2-24.3c22.5,1.4,45,2.1,67.5,3
			c72.4,2.8,144.8,5.6,217.3,8.4c20.7,0.8,24.3,6.3,17.8,26.3c-25.2,77.7-77,133-146.2,173.8c-68.5,40.3-143.7,59.8-221.5,70.2
			C1634.6,1060.5,1568.3,1066.7,1506.6,1073.6z"/>
		<path class="st1" d="M2255.2,1111.4c730.5,0,1461,0,2191.5,0c4.5,0,9,0,13.5,0c19.7,0.1,20.7,0.8,21,15.8
			c0.4,18.7-4.4,24.3-21.8,25.1c-4.5,0.2-9,0.1-13.5,0.1c-1461.9,0-2923.8,0-4385.7-0.1c-5.4,0-10.8,0.2-16.2-0.2
			c-14.7-1.1-20.4-7.3-19.9-21.5c0.4-13.3,6-18.6,20.7-19.1c6.3-0.2,12.6-0.1,18.9-0.1C794.2,1111.4,1524.7,1111.4,2255.2,1111.4z"
			/>
		<path class="st1" d="M1220.8,765.4c3.1,170.3-137.9,298.1-287,303.6c-179.5,6.6-314.9-140.3-314-303.6
			c0.9-163.8,126.5-304.4,301.2-304.8C1096.2,460.2,1224.1,605.3,1220.8,765.4z M738.2,762.9c-2.5,90.2,68,186.9,180,187.6
			c93.8,0.6,176.1-66,185.7-174.5c9.2-104.8-73.7-197.9-184.1-196.9C830.4,579.9,740.1,637.7,738.2,762.9z"/>
		<path class="st1" d="M3284.7,764.2c-3-154.2,128.7-305.4,296.2-305.5c167.5-0.1,305.4,133.1,304.8,303.2
			c-0.6,185.7-149.5,304.2-285.3,306.2C3409.7,1070.8,3283.9,923.5,3284.7,764.2z M3588,949.2c96.1,3.6,184.9-86.3,183.3-185.5
			c-1.7-104-77.7-186.8-192.4-186.6c-87.7,0.1-176.2,77.4-177.1,184.9C3401,864.2,3485.8,949.1,3588,949.2z"/>
		<path class="st1" d="M501.9,28.9c35.6,0,71.2-0.1,106.8,0c21.1,0.1,25.6,5,20.3,25.2c-19.1,73.3-38.5,146.4-58.2,219.5
			c-4.7,17.7-20.2,24.4-35,31.2c-38.9,17.9-77.3,36.7-110.9,63.9c-55.5,45-90.1,103.3-110.6,170.9c-6.9,22.9-13.2,45.9-21,68.5
			c-6.4,18.4-14,20.5-30.6,10.3c-40.6-25.1-81-50.6-121.7-75.6c-13.1-8-18.7-18.7-16-34c16.8-95.9,33.5-191.7,50-287.6
			c2.3-13.3,8.4-21.4,22.5-22.6c87.6-7.1,135.8-60.5,162.5-138.9c1.6-4.7,3.3-9.3,5.2-13.9c4.6-11.8,12.8-17.3,26-17.2
			C427.9,29.2,464.9,28.9,501.9,28.9z"/>
		<path class="st1" d="M3925.2,1010.2c11.8-15.1,22.9-30.9,35.5-45.3c43.9-49.9,53.1-106.6,35.3-169.2c-4.1-14.4-8.9-17.6-23.5-15.6
			c-27.7,3.8-32.1-0.6-33.2-28.7c-1.8-50.1-13.4-98-35.1-143.4c-1.9-4.1-4.5-7.9-5.9-12.1c-1.6-4.9-2.1-10.2-3.1-15.3
			c5-0.3,10.3-1.9,15-0.8c157.9,36,313.1,81.2,464.3,139.8c9.7,3.7,19.5,7.1,29,11.2c4.2,1.8,7.9,4.8,11.8,7.2
			c-0.1,1.6-0.2,3.2-0.3,4.9c-12,2-23.9,4.7-36,5.9c-46.1,4.9-92.2,9.3-138.4,13.8c-11.4,1.1-15.1,6.7-11.1,17.4
			c9.6,25.7,18,52.1,29.5,76.9c3.9,8.5,14.7,16.1,24,19.5c24.5,9,50.3,14.4,74.9,23c47,16.5,82.9,46.6,105.2,91.8
			c8.4,17.1,4.3,23.9-14.9,25.3c-4,0.3-8.1,0.2-12.2,0.2c-160.5,0-320.9,0-481.4-0.1c-9.2,0-18.5-1.5-27.7-2.3
			C3926.4,1013.1,3925.8,1011.7,3925.2,1010.2z"/>
		<path class="st1" d="M1558.3,510.9c-5.1,0.7-10.3,2.6-15.2,1.9c-60.8-8.4-121.7-17.7-178.2-43c-27.3-12.2-52.8-29-78.1-45.2
			c-5.4-3.4-10.1-14.3-8.9-20.6c11.6-63,33.7-120.9,87-161.4c44.3-33.6,95.5-43,149.6-39.9c42.8,2.5,82.9,14.8,121.2,34.7
			c38.9,20.3,61.8,52.7,77.6,91.7c3.5,8.8,6.4,17.8,9,26.9c3.3,11.9,0.3,16.6-11.8,16.6c-45.5,0.3-89.9-5-131.3-25.9
			c-12.8-6.5-26.3-11.9-39.8-16.7c-16.1-5.7-32.4-6.1-45.5,6.9c-14.5,14.4-20.3,32-13.7,52c10.2,31.3,28.2,58.2,49.6,83
			c9.9,11.5,20,22.9,30,34.4C1559.2,508,1558.7,509.4,1558.3,510.9z"/>
		<path class="st1" d="M455.6,1065.6c-4.9,1-9.8,2.9-14.7,2.9c-131.2,0.2-262.3,0.2-393.5,0c-15.5,0-19.7-4.9-17.3-19.9
			c5-30.7,10.3-61.3,16-91.9c3-16.3,9.1-21.1,26.2-21.2c54.5-0.1,109.1-0.5,163.6,0.6c10.4,0.2,24.3,3.8,30.4,11
			c47.3,55.3,109.3,85.8,176.7,107.7c4.5,1.5,8.6,3.9,12.9,5.9C455.9,1062.4,455.8,1064,455.6,1065.6z"/>
		<path class="st1" d="M4372.5,1352.6c3.3-8.7,7-17.3,10-26.2c10.3-31.2,20.1-62.6,30.6-93.8c8.3-24.5,35.9-36.1,59.1-24.3
			c4.4,2.2,8.5,9.9,8.6,15.1c0.6,63.5,0.5,127.1,0.2,190.6c-0.1,10.9-4.7,19.2-17.5,19.8c-12.6,0.6-19.5-5.8-21.8-17.5
			c-1-5.3-1.3-10.7-1.3-16.1c-0.1-32.4,0-64.9,0-97.3c0-4.6,0-9.3,0-13.9c-1.4-0.3-2.8-0.5-4.1-0.8c-2.7,6.4-5.9,12.6-8.1,19.2
			c-10.8,32-21.2,64.2-32.3,96.1c-2.9,8.3-7,16.9-12.6,23.5c-9.1,10.7-23.2,9.2-30.9-2.6c-3.6-5.6-6.1-12.1-8.3-18.4
			c-12.4-35.8-24.5-71.6-36.8-107.4c-1.5-4.5-3.5-8.8-5.3-13.2c-1.1,0.2-2.3,0.3-3.4,0.5c-0.4,5.1-1.2,10.1-1.2,15.2
			c-0.1,34.2,0,68.5,0,102.7c0,4.5,0.1,9.1-0.6,13.5c-1.5,10.4-7.8,15.8-18.3,16.5c-10.9,0.7-17.2-5.1-18.9-15.2
			c-1.7-10.2-3-20.6-3-30.9c-0.3-49.6-0.2-99.1-0.1-148.7c0-21.4,4.6-31.4,17-32.3c28.8-2,42.9-3.3,51.3,21.7
			c11.9,35.4,23.6,71,35.6,106.4c2.1,6.2,5.1,12,7.6,18C4369.5,1352.8,4371,1352.7,4372.5,1352.6z"/>
		<path class="st1" d="M148.9,898.2c-24.3,0-48.6,0.2-72.9,0c-16.5-0.1-20.2-4.6-17.6-20.5c5.7-35.1,11.5-70.2,17.4-105.2
			c2.6-15.5,8.9-21,24.5-21c42.8-0.1,85.5-0.1,128.3,0c17.1,0.1,19.6,3.3,14.7,19.2c-11.1,36-14.1,72.2-5,109.2
			c3.3,13.4-1,18.2-15.2,18.4C198.4,898.3,173.6,898.2,148.9,898.2z"/>
		<path class="st1" d="M3379.6,1335c0-5.7,0-11.4,0-17.2c0-28.9-0.3-57.7,0.3-86.6c0.4-16.7,8-24.5,21.2-24.3
			c11.7,0.2,19.2,9.1,19.3,24.7c0.2,59.1,0.5,118.2-0.4,177.2c-0.1,7.9-4.9,20.2-10.6,22.4c-6.7,2.6-19.7-0.8-25-6.3
			c-11.6-12.2-21.3-26.6-29.5-41.4c-13.5-24.4-25.2-49.9-37.8-74.8c-2.3-4.7-5.2-9.1-7.8-13.6c-1.2,0.2-2.4,0.4-3.5,0.5
			c-0.5,4.9-1.5,9.8-1.6,14.8c-0.1,30.7,0,61.3-0.1,92c-0.1,21-6.5,31-19.9,31.4c-14.1,0.5-23-9.8-23.2-30.4
			c-0.6-57.7-0.5-115.4-0.2-173.2c0.1-18.8,13.6-27.8,32.5-23.1c15.1,3.7,22.6,15.2,29,28.1c15.2,30.7,30.8,61.2,46.4,91.7
			c1.7,3.4,4.6,6.3,6.9,9.4C3376.9,1335.9,3378.3,1335.4,3379.6,1335z"/>
		<path class="st1" d="M1163.6,1297c0,7,0.1,14,0,21c-0.4,30.6,0.1,61.3-1.8,91.8c-1.1,18.1-9.2,25-21.4,23.8
			c-10.8-1.1-17.6-10.7-17.8-26.4c-0.4-55.4-0.7-110.7-1-166.1c0-1.3,0-2.7-0.2-4c-2.4-12-1.2-22.9,10.9-29.1
			c10.9-5.6,27.9-1.6,37.1,8.7c3.8,4.3,6.7,9.6,9.3,14.8c16.8,32.4,33.4,64.9,50.2,97.3c1.5,2.9,4,5.3,8.6,11.3
			c0.7-8.7,1.4-13.3,1.4-18c0.1-31.1,0-62.2,0-93.3c0-10.8,2.9-19.7,15.3-22c15.1-2.8,24.6,4.3,25.6,19.7c0.3,5.4,0.2,10.8,0.2,16.2
			c0,50.9,0.2,101.9-0.1,152.8c0,7.1-0.9,14.5-3.1,21.2c-6.1,18.4-21.6,22.9-35.5,9.2c-8.7-8.7-15.5-19.9-21.3-30.9
			c-14.5-27.5-28-55.6-42-83.3c-2.8-5.4-6.4-10.4-9.7-15.6C1166.9,1296.3,1165.2,1296.7,1163.6,1297z"/>
		<path class="st1" d="M1725.4,524.7c-20.6-0.1-25.1-3.6-29.9-23.5c-5-20.6-9.9-41.2-14.9-61.8c-1.1-4.4-1.4-9.7-4.1-12.7
			c-4.4-4.8-10.5-7.9-15.8-11.8c-2.3,5.7-7.2,11.9-6.3,17c4.4,24.4,10.4,48.4,15.8,72.6c3.3,15,1.3,16.4-13.6,18.2
			c-34.9,4.1-62.7-9.7-85.9-33.7c-27.6-28.5-53.6-58.5-68.5-96.2c-2.1-5.4-4-11.1-4.7-16.9c-2.1-15.9,8-28.9,23.8-27.2
			c14.4,1.6,29.7,5.1,42.2,12.1c36.1,20.2,75.2,26.8,115.3,30.6c12.5,1.2,25.1,1.8,37.7,3.1c14.6,1.6,20.7,8.7,23.4,26.7
			c3.7,24.9,7.1,49.9,10.7,74.9C1753.8,520.9,1750.3,524.8,1725.4,524.7z M1646.1,497.5c-7.4-26.8-14.8-53.5-22.5-80.3
			c-0.7-2.4-2.7-5-4.8-6.4c-3.8-2.6-8.2-4.3-12.3-6.4c-1.9,5.1-6.1,10.6-5.3,15.1c3.9,20.7,8.1,41.5,14.5,61.6
			c2.8,8.7,10.5,16.4,17.5,22.9C1639.3,509.4,1644,506,1646.1,497.5z"/>
		<path class="st1" d="M2629.9,1318.6c0-29.3-0.2-58.6,0-87.8c0.1-19.8,5.5-25.3,25.1-24.4c23.3,1,46.7,2.2,70,4.7
			c24.4,2.6,42.1,15.6,50,39.5c8.5,25.7,5.1,49.8-12.3,71.2c-3.4,4.2-7.5,7.8-11.4,11.5c-12.2,11.6-12.5,15.3-3.6,30
			c8.4,13.9,16.6,27.9,24.2,42.2c4.4,8.3,9.2,17.7-1.3,25.3c-8,5.9-24.2,4.2-31.3-3.7c-4.7-5.3-8.4-11.7-11.9-18
			c-8.7-15.8-16.9-31.8-25.3-47.7c-4.2-8-10.6-16.3-19.6-12.3c-5.5,2.4-9.9,12.1-10.9,19.1c-1.8,12.4-0.4,25.2-0.6,37.8
			c-0.3,18.4-7.2,27.8-20.3,28c-13.6,0.2-20.5-8.7-20.7-27.4C2629.8,1377.2,2629.9,1347.9,2629.9,1318.6z M2671,1274.9
			c0.1,0,0.1,0,0.2,0c0,5.8-1.1,12,0.3,17.4c1.4,5.2,4.3,11.3,8.5,14.3c8.8,6.3,40.8,0.3,48.2-7.8c9.6-10.6,9.3-23.2,5.3-35.5
			c-3.6-11-13.7-14.7-24.5-16c-6.2-0.8-12.5-1.4-18.7-2c-12.9-1.4-18.3,3-19.2,16.2C2670.8,1265.9,2671,1270.4,2671,1274.9z"/>
		<path class="st1" d="M1775,1317.2c0-27-0.1-54.1,0-81.1c0.1-26.7,6.6-31.7,32.6-28.7c19.2,2.2,38.6,2.5,57.9,4.1
			c29.8,2.4,48.4,16.2,56.2,40.7c9,28.4,0.1,61.6-21.3,79.1c-16.7,13.7-16.9,15.9-5.5,34.3c8.3,13.4,16.9,26.8,23.2,41.2
			c2.7,6.3,2.3,19.9-1,21.6c-7.3,3.7-18.2,4.3-26,1.5c-6.6-2.4-11.8-10.7-15.8-17.5c-8.9-15.1-16.6-31-24.8-46.5
			c-1.5-2.8-2.6-6.2-4.9-8c-5.7-4.4-12.1-8.1-18.2-12.1c-3,6.9-7.8,13.6-8.6,20.7c-1.8,15.6-1,31.5-2.2,47.1
			c-0.9,11.3-6.5,20-19.4,20.2c-13.6,0.2-19.6-8.9-20.8-20.5c-1.5-14.7-1.2-29.7-1.4-44.5C1774.8,1351.5,1775,1334.3,1775,1317.2z
			 M1813.9,1281.4c-0.3,17.3,7.5,27.9,23.7,28.5c10,0.4,20.6-2.1,30-5.7c11.6-4.4,14.3-15.9,14.3-27c0-10.6-3.1-20.4-13.6-26.2
			c-30.8-16.8-51.1-6.5-54.2,27.6C1814.1,1279.6,1814,1280.5,1813.9,1281.4z"/>
		<path class="st1" d="M481.4,1317.3c0-29.3-0.1-58.6,0-87.8c0.1-18.5,7.1-24.1,25-22.5c20.6,1.9,41.2,3.5,61.9,4.3
			c29.9,1.3,49.5,12.9,57.1,34.9c11.4,32.8,4.3,66.1-17.9,84.5c-17.8,14.8-17.8,15-5.9,35.2c8.7,14.7,17.6,29.4,25.3,44.6
			c7,13.7,0.7,22.9-14.6,23.3c-15.8,0.5-24.9-9.2-31.7-21.5c-8.5-15.4-15.6-31.5-24.2-46.8c-5.2-9.2-10.7-22-23.2-19.1
			c-13.5,3.1-10.4,17-10.7,27.5c-0.3,12.2,0.1,24.3-0.2,36.5c-0.4,16-6.8,23.3-20,23.4c-12.3,0.1-20.6-8.4-20.9-23.3
			c-0.5-31.1-0.1-62.2-0.1-93.2C481.5,1317.3,481.4,1317.3,481.4,1317.3z M522.6,1278.9c0,30.2,3.8,33.4,33.8,29.4
			c3.6-0.5,7.1-1.3,10.6-2.1c13.2-3,19.9-10.8,20.2-24.7c0.6-24-7-32.8-31-34.4c-3.6-0.2-7.2-0.6-10.7-1.1
			c-15.8-2.2-21.8,2.4-22.8,18.1C522.3,1268.9,522.6,1273.9,522.6,1278.9z"/>
		<path class="st1" d="M660.1,1349.8c0-25.5-0.2-48.9,0-72.2c0.5-45.3,22.5-65.6,65.7-73.4c28.1-5.1,55.7,0.7,75.5,23.1
			c8.7,9.9,16.8,23.9,17.7,36.5c2.4,33.9,2.5,68.3,0.2,102.2c-2.5,35.8-22.5,59.8-51.9,66.5c-36.3,8.2-69.1,1.5-94-28.4
			C659.5,1387.8,658.8,1367.8,660.1,1349.8z M780.1,1324.4c-1.1-18.5-1.2-35.1-3.2-51.6c-2.7-21.8-14.2-31-36.4-31.1
			c-21.4-0.1-35.2,9.9-36.3,31.4c-1.6,31.3-1,62.7,0.5,94c0.7,16.2,14.9,27.5,30.9,28.4c22.5,1.3,37.2-6.7,40.6-24.7
			C779.2,1355.1,779,1338.7,780.1,1324.4z"/>
		<path class="st1" d="M3502.4,1318.2c0,14.9-1.1,29.8,0.3,44.5c1.9,20.2,13.6,31.2,31.6,32.7c19.8,1.6,34.3-7.6,40.8-26.1
			c5.8-16.4-0.6-26.2-18-27.4c-14-1-20.3-7.3-19.8-20c0.4-11.9,6.7-17.9,20.4-18.2c13.1-0.4,26.1-0.4,39.2,0
			c15.7,0.5,20.9,6,21.2,21.6c0.2,11.7,0.3,23.4,0,35.1c-1,39.2-34.9,75.8-72.5,75.6c-49.1-0.2-83.9-23.7-86.6-71.7
			c-2-34.4,0-69.3,2.5-103.8c2.2-30.6,28.2-52.5,64.7-56.7c31.3-3.6,58.7,4.6,80.2,29.3c7.4,8.6,7.1,16.1-0.2,23.8
			c-7.8,8.3-16.4,10.4-26.2,2.6c-11.2-9-22-18.4-38.1-18.1c-26,0.6-39.4,13-40,38.9c-0.3,12.6-0.1,25.2-0.1,37.8
			C3502,1318.2,3502.2,1318.2,3502.4,1318.2z"/>
		<path class="st1" d="M3885.6,1316.8c0-27-0.1-54.1,0-81.1c0.1-24.9,4.7-29.5,28.9-29.6c30.2-0.1,60.4,0,90.6,0
			c9,0,17,1.4,21.3,10.8c6.4,14-1,27-16.4,27.4c-20.3,0.5-40.6,0.1-60.8,0.2c-15.9,0.1-19.2,3.3-20,18.6c-1.7,34.1-0.9,35,33,35
			c11.3,0,22.6-0.3,33.8,0.2c12.9,0.6,17.3,6.6,17.2,20.7c0,11.8-5.5,17.5-17.3,17.4c-16.7-0.1-33.4,0.2-50,0
			c-10.6-0.2-15.9,4.8-16.5,15.2c-0.1,0.9-0.1,1.8-0.1,2.7c-2.2,36.6-0.4,38.4,35.8,38.4c14.9,0,29.7,0.1,44.6,0
			c11.3,0,18.1,5.1,18.7,16.7c0.7,12.8-6.2,23.7-16.9,23.9c-35.6,0.6-71.2,0.7-106.8-0.4c-5.4-0.2-12.3-7.1-15.4-12.6
			c-3.2-5.9-3.5-13.9-3.6-21C3885.4,1371.8,3885.6,1344.3,3885.6,1316.8z"/>
		<path class="st1" d="M1599,1317.7c0-28.8-0.1-57.7,0.1-86.5c0.1-19.6,5.4-24.8,25.1-24.9c31.1-0.2,62.2-0.1,93.3,0
			c11.1,0,20.9,2.6,22.6,16.1c2,15.5-3.4,21.9-19,22.1c-19.8,0.2-39.7,0.6-59.5-0.1c-13.1-0.5-19.2,5.6-20.5,17.8
			c-0.4,3.6-0.8,7.2-0.8,10.8c0,21.2,3.9,25.1,25.2,25.2c14,0.1,28-0.2,41.9,0.2c13.4,0.4,19.3,6.5,19.3,19c0,12.5-6,18.7-19.3,19
			c-15.3,0.4-30.7,0-46,0.2c-14.7,0.2-19.3,4.3-20.8,18.8c-0.5,4.5-0.4,9-0.3,13.5c0.6,18.9,5.5,23.7,24.7,23.8
			c18.5,0.2,37,0,55.4,0.1c11,0,19.6,2.9,19.9,16.4c0.3,14.6-6.1,24.1-19.3,24.4c-33.8,0.6-67.6,0.6-101.4,0
			c-13.4-0.2-20.1-9.2-20.3-26.7C1598.8,1377.2,1599.1,1347.4,1599,1317.7C1599.1,1317.7,1599.1,1317.7,1599,1317.7z"/>
		<path class="st1" d="M4229.8,1419.6c-3,3.6-6.3,11.4-11.3,12.7c-7,1.8-16.7,0.9-22.4-2.9c-6-4-10.2-12.5-12.4-19.8
			c-4.3-13.8-12.3-20-26.7-19.3c-12.1,0.6-24.3,0.7-36.5,0.1c-13.4-0.7-20.8,4.5-24.2,17.9c-1.9,7.4-6.4,15-11.8,20.5
			c-7.4,7.5-17.4,7.1-26.2,1.5c-8.2-5.3-7.8-13.4-5.2-21.7c19.2-60,38.2-120.1,57.6-180.1c5.6-17.4,12.8-22.2,29.5-22.1
			c16.2,0,22.8,4.4,28.3,21.5c19.8,60.3,39.1,120.8,58.6,181.2C4228,1411.4,4228.4,1414.1,4229.8,1419.6z M4142.6,1270.8
			c-2.2,0-4.4,0-6.7,0c-6.5,23.6-13.8,46.9-19.1,70.8c-2.3,10.2,7.4,11.6,14.5,10.4c10.7-1.8,25.2,7.4,31.2-9.4
			c0.8-2.2-0.6-5.3-1.3-7.9c-2.5-9.6-5.1-19.1-7.9-28.6C4149.9,1294.3,4146.2,1282.6,4142.6,1270.8z"/>
		<path class="st1" d="M365.5,1415c-0.4,17.7-15.6,25.6-30,15.1c-7.3-5.3-12.1-15.2-15.7-24c-4.3-10.6-10.1-16.3-22-15.8
			c-13.5,0.5-27.1,0.7-40.6,0c-13.8-0.7-19.6,6-24.1,18.4c-3.2,8.9-9.9,18.5-17.8,23.3c-13.6,8.3-27.7-3-25.2-19
			c1.2-8,3.8-15.8,6.3-23.5c17-53.2,34.1-106.4,51.3-159.6c5.6-17.2,13.9-23.4,30.2-23.7c13.4-0.3,22.9,5.8,27,18.3
			c19.9,60.8,39.5,121.7,59.1,182.6C365,1410.1,365.2,1413.3,365.5,1415z M280.5,1271c-2-0.2-4-0.4-6-0.6c-5.1,16-10.8,31.8-15.2,48
			c-9.7,35.7-13.8,34.3,28.9,33.7c9.5-0.1,13.5-5.6,11.3-14.1C293.7,1315.5,286.9,1293.3,280.5,1271z"/>
		<path class="st1" d="M2978.1,1416.3c-2.1,3.4-4.6,12.3-9.1,13.6c-10.2,2.8-21.9,2.7-28.9-8.4c-2.1-3.4-3.3-7.4-4.4-11.3
			c-4.1-14.1-12.9-20.8-27.9-20c-7.6,0.4-15.3-0.2-22.9-1.2c-19.6-2.5-33.3,5.4-40.5,23.7c-7.5,19-15.4,25.1-27.2,21.1
			c-12.8-4.3-15.2-14-8.7-34.1c18.3-56.6,36.5-113.2,54.8-169.8c6.2-19.2,11.8-23.8,27.8-23.8c16.7,0,24.9,5.8,30.4,23.2
			c17.9,55.8,35.5,111.6,53,167.5C2976.2,1401.9,2976.6,1407.4,2978.1,1416.3z M2894.4,1271.3c-2.1,0-4.1-0.1-6.2-0.1
			c-6.5,23.1-13.4,46.1-19.2,69.4c-1.9,7.6,3.8,12.3,11.2,11.3c11.5-1.6,25.3,6.7,34.2-7.2c0.4-0.6,0.2-1.8,0-2.6
			C2907.8,1318.4,2901.1,1294.8,2894.4,1271.3z"/>
		<path class="st1" d="M927.8,1297.3c0-23-0.1-45.9,0-68.9c0.1-15.7,5.6-22,18.9-22.2c14.9-0.3,22,6.4,22.1,22.4
			c0.3,42.3,0,84.7,0.2,127c0.1,21.5,9.8,35.7,26,39.5c24.1,5.7,43.1-10.3,43.6-38c0.6-37.8,0.2-75.7,0.2-113.5
			c0-4.1-0.3-8.2,0.2-12.1c0.6-4.4,1.5-8.9,3.2-13c3.5-8.4,9.1-14.8,19.3-13.8c10.6,1.1,16.4,8,17.1,17.9c1.1,14.3,1,28.8,1,43.2
			c0.1,32,0.6,64-0.2,95.9c-1.5,57.8-61.4,93.4-112.7,66.8c-24.7-12.8-37.3-35-38.8-62.4c-1.2-22.9-0.3-45.9-0.3-68.9
			C927.9,1297.3,927.8,1297.3,927.8,1297.3z"/>
		<path class="st1" d="M2032.4,1436.8c-28.7-1-51.1-10.1-70-27.9c-6.5-6.1-9.7-12.9-4.7-21.6c5.3-9.1,13.3-12.4,22.9-9.6
			c6.8,2,13,6.1,19.2,9.6c14.5,8.2,30.1,12.2,45,3.7c7.2-4.1,15.1-13.5,15.6-21c0.4-7.4-6.3-18.7-13-22.3
			c-12.8-6.9-27.9-9.8-42.1-13.9c-17.3-4.9-34-11.4-42.3-28.6c-13.9-28.8-12.5-78.8,34.6-96.6c34.7-13.1,63.3-1.1,92,14.7
			c3.8,2.1,7.9,11.4,6.3,14.1c-3.9,6.8-10.1,14-17.1,16.6c-5.4,2-13.3-2.8-20.1-4.5c-11.2-2.7-22.3-7-33.5-7.3
			c-12.7-0.3-22.9,10.8-24.7,22.9c-1.7,11.5,4.9,22.1,18.1,26.7c14,4.8,28.6,8.1,42.7,12.8c32,10.6,45.6,31.2,44.2,65.6
			c-1.2,29.5-22.4,56.2-50.6,62.9C2046.6,1435.2,2038.1,1435.9,2032.4,1436.8z"/>
		<path class="st1" d="M1489,1355.5c2.3-6,5.1-12,6.8-18.2c9.8-33.8,18.9-67.7,29.2-101.3c2.7-8.7,7-18.3,13.7-23.8
			c5.4-4.5,16.3-6.2,23.1-3.9c4.3,1.4,8.2,12.9,7.3,19c-2.2,14.6-7.2,28.8-11.5,43c-13.7,45.3-27.6,90.5-41.5,135.8
			c-1.1,3.4-2.4,6.8-4,10.1c-5.5,11.7-14.2,18.2-27.6,17.9c-13.3-0.2-20.9-7.9-24.6-19.5c-9.6-29.6-18.9-59.3-28-89
			c-9.7-31.4-19.3-62.9-28.6-94.5c-2.4-8.3-7.4-17.8,4.8-23.3c12.1-5.4,27.9-1.1,33.1,9.7c3.9,8.1,6.5,16.8,9.1,25.4
			c9.6,32.4,18.8,65,28.4,97.4c1.6,5.3,4.5,10.1,6.8,15.2C1486.6,1355.5,1487.8,1355.5,1489,1355.5z"/>
		<path class="st1" d="M21.5,1315.1c0-11.3,0.1-22.5,0-33.8c-0.3-52.9,40.8-86.8,93.2-76.9c18.7,3.5,35.2,11.1,48.1,25.4
			c7.3,8,11.5,16.6,2.5,26.1c-8.7,9.2-20.1,9.8-29.8,0.9c-13.5-12.5-28.6-18.2-47-13.5c-11.3,2.8-19.2,9.9-19.8,21.2
			c-1.6,31-2.4,62-2.4,93c0,7.2,3.6,15,7.1,21.6c10,18.5,27.4,23.5,45.8,13.2c7.8-4.4,14.8-10.2,22.5-14.9c9.1-5.5,17.4-3.5,24,4.6
			c6.4,7.7,3.7,14.7-1.7,22c-20.7,27.8-53.3,39.8-84.5,30.5c-34.3-10.2-56.3-37.9-57.8-73.4c-0.6-15.3-0.1-30.6-0.1-46
			C21.6,1315.1,21.6,1315.1,21.5,1315.1z"/>
		<path class="st1" d="M2997.9,1315.9c0-13.5-0.3-27,0.1-40.6c0.7-29.7,13.3-52.4,41.2-64.2c30.6-12.9,60.6-12.3,88,8.9
			c3.9,3,7.1,6.9,10.6,10.4c6.7,6.7,12.8,13.2,4.4,23c-9.1,10.6-19,12.8-29.6,5.5c-4.1-2.8-7.4-6.6-11.3-9.6
			c-23.8-17.8-54.6-7.6-57.5,21.6c-3.2,32-3.1,64.7-0.3,96.7c2.6,29.1,36.6,38,60.5,17.6c7.3-6.3,13.8-12.9,24.9-9
			c16.2,5.6,19.7,16.5,9,29.8c-21.5,26.6-55.5,37.6-86,27.8c-31.4-10.1-52.3-38.3-53.9-73.6
			C2997.4,1345.6,2998,1330.7,2997.9,1315.9C2998,1315.9,2998,1315.9,2997.9,1315.9z"/>
		<path class="st1" d="M2430.8,1398.4c-2.6-22.5-1.5-46.3-8.8-67.2c-9.1-26.1-25-49.8-38-74.4c-5.3-10-11.3-19.6-16-29.8
			c-5.5-12-2.1-17.4,10.9-20.1c15.6-3.2,27.5,2.2,35.8,17.6c8.2,15.1,15.2,30.7,23.3,45.8c2.9,5.3,7.6,9.6,11.5,14.3
			c3.9-4.6,8.5-8.7,11.4-13.8c8.4-14.9,16-30.3,24.2-45.3c7-12.9,17.5-20.4,32.8-19.5c15,0.9,19.6,8,12.5,21.3
			c-14.9,27.8-30.1,55.5-46.1,82.6c-9.5,16.1-14.5,32.4-14,51.2c0.5,19.3-0.7,38.7-2.4,57.9c-0.8,8.9-7.3,14.3-16.8,14.7
			c-9.5,0.4-17.2-2.9-20.3-12.3c-2.3-7.2-3.3-14.8-4.9-22.3C2427.6,1398.9,2429.2,1398.7,2430.8,1398.4z"/>
		<path class="st1" d="M2297.4,1334.9c0,24.3,0.4,48.7-0.1,73c-0.3,16.2-7,24.8-18.3,25.9c-12.2,1.2-21.3-4.7-22.2-18
			c-1.8-25.1-2-50.3-2-75.4c0-25.6,1.4-51.3,1.4-76.9c0-13.7-5.7-18.4-19.2-18.8c-7.2-0.2-14.4-0.1-21.6-0.2
			c-9.6,0-15.3-4.9-16.6-14.3c-1.3-9.2,1.2-17.4,10.4-21.3c4.4-1.9,9.6-2.5,14.5-2.6c34.7-0.2,69.4-0.1,104-0.1
			c3.1,0,7.5-0.7,9.2,0.9c6,6,14.4,12.4,15.7,19.7c1.7,9.8-7.4,15.8-17.2,17.1c-6.6,0.9-13.5,0.8-20.2,0.5
			c-12.5-0.6-18,4.5-17.7,17.5C2297.9,1286.2,2297.5,1310.5,2297.4,1334.9C2297.4,1334.9,2297.4,1334.9,2297.4,1334.9z"/>
		<path class="st1" d="M3761.2,1334.8c0-23.4,0.1-46.8,0-70.2c-0.1-17.1-2.9-19.7-19.5-20c-6.3-0.1-12.6,0-18.9-0.1
			c-11.2-0.2-17.8-5.6-18.3-17.1c-0.6-12.3,5.6-20.5,18-20.6c40.1-0.6,80.1-0.5,120.2-0.1c11.5,0.1,19.1,9.3,18.4,20.6
			c-0.8,12-7.7,17.7-19.6,17.3c-0.9,0-1.8,0-2.7,0c-38-0.7-36.6,0.5-36.4,37.7c0.2,40.5,0.1,81,0,121.5c0,4.5,0.1,9-0.5,13.5
			c-1.4,9.6-7,15.4-16.8,16.5c-10.3,1.2-17.9-2.7-21-12.8c-1.8-5.9-2.5-12.4-2.6-18.6C3761,1379.8,3761.2,1357.3,3761.2,1334.8z"/>
		<path class="st1" d="M2129.3,1318.6c0-29.3-0.1-58.6,0.1-87.9c0.1-17.8,6.1-24.4,21.4-24.6c15.3-0.2,22,6.2,22.1,24
			c0.3,58.1,0.3,116.2,0,174.3c-0.1,10.8-1.7,22.3-13.1,27.8c-15.2,7.3-29.8-3.8-30.2-23.1C2129,1379,2129.4,1348.8,2129.3,1318.6
			C2129.3,1318.6,2129.3,1318.6,2129.3,1318.6z"/>
		<path class="st1" d="M3176.4,1317.4c0-29.8-0.1-59.5,0.1-89.3c0.1-15.7,5.7-21.7,19.3-21.9c15.3-0.2,21.9,6.3,21.9,22.3
			c0.1,60.4,0.2,120.9,0,181.3c-0.1,16.6-7,24.2-20.8,24c-13.3-0.1-20.2-7.4-20.3-23.1C3176.3,1379.6,3176.5,1348.5,3176.4,1317.4
			C3176.4,1317.4,3176.4,1317.4,3176.4,1317.4z"/>
		<path class="st1" d="M1325.6,1318.7c0-30.2-0.1-60.4,0-90.6c0.1-15.1,6-21.3,19.6-21.8c14.1-0.5,21.2,6.1,21.3,21.7
			c0.3,60.4,0.3,120.8,0,181.3c-0.1,17.2-8.1,25.3-22,24.5c-12.6-0.7-18.7-7.8-18.9-23.1C1325.4,1380,1325.6,1349.4,1325.6,1318.7z"
			/>
		<path class="st1" d="M435.9,1317.5c0,28.4,0.3,56.7-0.2,85.1c-0.2,7.4-1.6,15.7-5.4,21.7c-3,4.7-10.9,9.1-16.1,8.6
			c-5.3-0.4-12.1-6.1-14.5-11.2c-3.3-7-4.3-15.7-4.4-23.6c-0.3-54.9-0.6-109.9,0.2-164.8c0.1-8,3.6-18.8,9.4-23.4
			c13.4-10.6,30.5-0.7,30.8,17c0.6,30.2,0.2,60.3,0.2,90.5C435.8,1317.5,435.9,1317.5,435.9,1317.5z"/>
		<path class="st1" d="M920.3,599.9c92.1,0,165.1,73.6,165,166.3c-0.1,94.8-75.2,163.2-177.4,164.6
			c-80.6,1.1-154.7-92.6-151.5-166.2C760.4,672.8,829.5,599.8,920.3,599.9z M901.5,695.6c1.6-0.5,3.2-0.9,4.7-1.4
			c0-16.5,0.7-33-0.4-49.4c-0.4-5.7-5.1-16-7.6-15.9c-8.9,0.3-17.8,3.9-26.5,6.8c-1.1,0.4-2.1,4.4-1.4,6
			C878.2,661.2,887.3,680,901.5,695.6z M905.1,836.9c-2-0.7-4-1.4-6-2.1c-8.1,13.5-16.9,26.7-24.1,40.7c-2.7,5.2-4.3,16.4-2.2,17.6
			c7.7,4.5,17.1,6.3,26.1,8.2c1.6,0.3,5.9-3.9,5.9-6.2C905.3,875.7,905.1,856.3,905.1,836.9z M874.4,816.5c-1.3-1.4-2.6-2.7-4-4.1
			c-17.8,10.7-36.2,20.7-53.3,32.6c-8,5.5-1.1,12.3,3.7,16.8c5.5,5.1,12.5,16.1,19.7,7.1C853.6,852.8,863.3,834.1,874.4,816.5z
			 M987.3,744.2c0.4,1.2,0.7,2.4,1.1,3.7c20.3,0,40.7,1.3,60.8-0.6c9.3-0.9,9.1-11.1,5.7-18.8c-3-6.9-4.7-18.8-15.5-13.7
			C1021.3,723.1,1004.6,734.2,987.3,744.2z M943.2,833.8c-1.9,0.5-3.7,1-5.6,1.6c0,19.9-1.7,39.9,0.6,59.5
			c1.4,11.7,13.1,5.9,20.2,4.3c7.3-1.6,15.1-6.5,11.3-15C962,866.9,952.2,850.5,943.2,833.8z M971.2,811.7c-1.2,1.3-2.4,2.6-3.6,3.8
			c9.6,16.6,18.8,33.4,28.9,49.6c4.5,7.2,11.4,6.9,17.2,1.3c4.2-4,7.9-8.8,10.6-13.9c1.2-2.3,0.8-8-0.9-9.1
			C1006.2,832.6,988.6,822.2,971.2,811.7z M851.9,748.3c0.4-1.7,0.7-3.3,1.1-5c-16.3-9.1-32.2-19-49-27.1
			c-10.1-4.8-14.5,3.7-17,11.9c-2.4,8-4.4,18.6,6.6,19.6C812.9,749.6,832.5,748.3,851.9,748.3z M936.9,693.6
			c1.6,0.6,3.1,1.3,4.7,1.9c9.4-16.6,20.2-32.6,27.8-50c5.7-13.1-7.9-13.4-15.7-16.2c-8.7-3.2-16.1-0.6-16.6,9.4
			C936.3,657,936.9,675.3,936.9,693.6z M854.7,785.9c-0.5-1.4-1.1-2.7-1.6-4.1c-19.2,0-38.5-0.3-57.7,0.1
			c-10.2,0.3-11.6,7.6-8.9,15.4c2.7,7.8,3.2,21.8,15.5,16.9C820.4,806.9,837.2,795.6,854.7,785.9z M989.4,781.8
			c-0.4,1.4-0.9,2.8-1.3,4.2c13,7.6,25.6,15.8,38.9,22.8c19.1,10.1,29,3.6,28.1-18.3c-0.1-3-4.6-8.2-7.2-8.3
			C1028.4,781.5,1008.9,781.8,989.4,781.8z M868.1,716.7c1.3-1.1,2.7-2.1,4-3.2c-10.1-17.1-19.5-34.6-30.5-51.1
			c-5.4-8.1-12.7-2.9-16.4,2.8c-4.2,6.5-16.5,13.8-5,22.2C835.2,698.5,852,707.1,868.1,716.7z M968.7,711.8c1.7,1.5,3.4,3,5.1,4.5
			c15.2-9.3,30.8-18.1,45.5-28.2c9.4-6.5,4.7-14.1-1.2-20.6c-5.3-5.9-11.9-13-18.6-3.7C988.2,679.1,978.9,695.7,968.7,711.8z
			 M921.2,744.8c-10.7-0.2-19.5,8.7-19.7,20c-0.2,11.7,7.5,19.3,19.6,19.2c10.9,0,19.7-9.1,19.5-20
			C940.3,754.6,930.6,744.9,921.2,744.8z"/>
		<path class="st1" d="M3422.7,762.9c0-100.4,73-165.8,185-165.6c61.4,0.1,144.3,75.3,143.2,167.3c-1.1,90.3-70.4,165.3-163.8,165.1
			C3494.5,929.4,3420,855.7,3422.7,762.9z M3638.3,811.3c-1.4,1.5-2.8,3-4.1,4.5c7.5,13.5,14.9,27.2,22.6,40.5
			c11.7,20.3,14.8,20.5,30.3,3c1.2-1.3,3.3-2.7,3.3-4.1c0.1-4.5,1.1-11.5-1.2-13C3672.7,831.3,3655.4,821.5,3638.3,811.3z
			 M3534.9,714c1.4-1.4,2.7-2.8,4.1-4.2c-10.6-16.9-21-33.9-31.9-50.6c-1.4-2.1-6.9-4.1-8-3.2c-7,6-14.1,12.3-19,19.9
			c-1,1.6,6.3,10,11.1,13.6c8.6,6.4,18,11.9,27.3,17.2C3523.6,709.6,3529.4,711.6,3534.9,714z M3539.5,814c-1.1-1.2-2.3-2.3-3.4-3.5
			c-13.1,7.4-26.2,14.9-39.3,22.3c-23.3,13.3-23.6,17-2.8,34.4c0.3,0.3,0.7,0.9,1,0.9c4.6-0.3,11.8,1,13.3-1.3
			C3519.3,849.6,3529.3,831.7,3539.5,814z M3654.2,779.7c-0.6,1.9-1.1,3.7-1.7,5.6c17.2,9.2,34.2,18.8,51.8,27.3
			c7.2,3.4,14.1,0.2,14.9-8.4c0.7-8.3,9.1-21.7-5-23.8C3694.5,777.6,3674.2,779.7,3654.2,779.7z M3632.6,712.1c1,1.3,2,2.6,3,4
			c16.6-9.4,33.4-18.4,49.6-28.4c3.4-2.1,7.7-9.5,6.7-11.1c-4.7-6.8-10.6-13.2-17.3-17.8c-2.3-1.6-10.6,0.9-12.5,3.8
			C3651.7,678.7,3642.3,695.5,3632.6,712.1z M3654.2,741.3c5.5,3.5,7.3,5.7,9,5.6c16.9-0.4,33.9-0.4,50.6-2.5
			c2.4-0.3,5.5-11,4.9-16.5c-0.8-6.9-3.5-18.9-12.7-15.2C3688.7,719.8,3672.9,730.7,3654.2,741.3z M3606.4,829.9
			c-1.2,0.3-2.4,0.7-3.6,1c0,19.4-1.1,38.9,0.5,58.1c0.7,9.2,9.7,11.6,17.8,7.6c6.4-3.1,19.4-4.1,14.6-14.8
			C3627.6,863.8,3616.3,847.1,3606.4,829.9z M3601.2,694c1.9,0.5,3.9,1.1,5.8,1.6c9.6-17.8,20.6-35,28-53.7
			c3.7-9.2-8.3-11-15.2-13.1c-6.9-2.1-14.9-2.4-15.8,6.9C3602.3,655.1,3602.1,674.5,3601.2,694z M3572.5,836.3
			c-2.4-0.7-4.7-1.4-7.1-2.1c-9.9,16.2-20,32.4-29.3,48.9c-1,1.8,1.8,8,4.2,9.2c5.5,2.7,11.9,4.6,18,4.9c3.2,0.2,9.3-3.3,9.6-5.7
			C3570.1,873.1,3571.1,854.7,3572.5,836.3z M3565.6,695.5c1.1-0.6,2.2-1.2,3.3-1.8c0-17.9,0.2-35.8-0.1-53.6
			c-0.2-12.3-8.9-13.2-18.1-11.7c-8.2,1.4-18.6,4.9-14.2,14.9C3544.6,661.4,3555.7,678.1,3565.6,695.5z M3515,745.2
			c0.5-1.8,1.1-3.6,1.6-5.4c-15.9-8.4-31.7-17-47.7-25.1c-6.3-3.2-13.4-3.1-14.8,5.4c-1.4,8.7-6,22.3,5.7,24.4
			C3477.8,747.4,3496.6,745.2,3515,745.2z M3515.8,787.7c-0.4-1.8-0.8-3.6-1.2-5.4c-18.2,0-36.6-1.9-54.4,0.6
			c-12.2,1.7-7.9,14.1-6.4,22.6c1.1,6.2,4.5,11.9,12.1,8.1C3482.8,805.3,3499.2,796.4,3515.8,787.7z M3585.4,783.7
			c10.9,0.3,21.1-9.7,21-20.5c-0.1-9.9-8.9-19-18.9-19.4c-11-0.4-20.5,8.1-20.7,18.8C3566.6,773.5,3575.4,783.5,3585.4,783.7z"/>
	</g>
</g>
</svg>
